<svg width="114" height="101" viewBox="0 0 114 101" fill="none" xmlns="http://www.w3.org/2000/svg">
<path d="M31.7948 56.6667L36.5945 44.6817L41.3828 56.6667H31.7948ZM79.6668 51H85.3335V62.3333H79.6668C78.1639 62.3333 76.7226 61.7363 75.6599 60.6736C74.5972 59.6109 74.0002 58.1696 74.0002 56.6667C74.0002 55.1638 74.5972 53.7224 75.6599 52.6597C76.7226 51.597 78.1639 51 79.6668 51ZM108 0H6.00016C4.49727 0 3.05593 0.597022 1.99322 1.65973C0.930518 2.72243 0.333496 4.16377 0.333496 5.66667V96.3333C0.333496 97.8362 0.930518 99.2776 1.99322 100.34C3.05593 101.403 4.49727 102 6.00016 102H108C109.503 102 110.944 101.403 112.007 100.34C113.07 99.2776 113.667 97.8362 113.667 96.3333V5.66667C113.667 4.16377 113.07 2.72243 112.007 1.65973C110.944 0.597022 109.503 0 108 0ZM60.3888 73.6667H48.1772L45.9105 68H27.2672L25.0005 73.6667H12.7945L19.5888 56.678L19.5945 56.6667L30.9278 28.3333H42.2612L60.3888 73.6667ZM85.3335 28.3333H96.6668V73.6667H79.6668C75.1581 73.6667 70.8341 71.8756 67.646 68.6875C64.4579 65.4994 62.6668 61.1753 62.6668 56.6667C62.6668 52.158 64.4579 47.834 67.646 44.6458C70.8341 41.4577 75.1581 39.6667 79.6668 39.6667H85.3335V28.3333Z" fill="#47554E"/>
</svg>
