<svg width="114" height="101" viewBox="0 0 114 101" fill="none" xmlns="http://www.w3.org/2000/svg">
<path d="M68.3338 85V96.3333L79.6671 102V107.667H34.3338L34.3111 102.023L45.6671 96.3333V85H5.95512C5.21052 84.9956 4.47413 84.8441 3.78821 84.5544C3.10228 84.2646 2.48033 83.8423 1.95804 83.3116C1.43575 82.7809 1.02341 82.1522 0.744677 81.4618C0.465943 80.7713 0.326307 80.0326 0.333781 79.288V5.712C0.333781 2.55567 2.91212 0 5.95512 0H108.046C111.151 0 113.667 2.54433 113.667 5.70633V79.288C113.667 82.4443 111.089 85 108.046 85H68.3338ZM11.6671 11.3333V62.3333H102.334V11.3333H11.6671Z" fill="#47554E"/>
</svg>
