<svg width="80" height="80" viewBox="0 0 80 80" fill="none" xmlns="http://www.w3.org/2000/svg">
<path d="M10.3613 44.5715H14.7736C17.9825 44.5715 19.8818 42.6485 19.8818 39.9115C19.8818 37.4222 18.3246 35.3695 14.6438 35.3695H10.3613V44.5715ZM12.5321 42.6367C12.5321 40.9143 12.5321 39.0267 12.5321 37.3043H14.1011C15.4932 37.3043 17.6049 37.3043 17.6049 40.0059C17.6049 42.2592 16.0477 42.6367 14.514 42.6367H12.5321Z" fill="#08120D"/>
<path d="M21.6974 44.5715H23.9507L24.9771 42.4715C26.4046 42.4715 27.8321 42.4715 29.2595 42.4715L30.2859 44.5715H32.5864L28.4101 35.3695H25.8737L21.6974 44.5715ZM25.9445 40.4306C26.3338 39.6165 26.7113 38.7789 27.1006 37.9059H27.136C27.5253 38.7789 27.9028 39.6165 28.2922 40.4306H25.9445Z" fill="#08120D"/>
<path d="M39.9635 44.772C43.078 44.772 45.5554 42.7901 45.5554 39.9823C45.5554 37.1509 43.0662 35.1807 39.9635 35.1807C36.8843 35.1807 34.3715 37.1273 34.3715 39.9823C34.3715 42.8372 36.8961 44.772 39.9635 44.772ZM36.6484 39.9823C36.6484 38.3424 38.1113 37.1509 39.9753 37.1509C41.8864 37.1509 43.2667 38.4132 43.2667 39.9823C43.2667 41.5985 41.851 42.8019 39.9753 42.8019C38.1349 42.8019 36.6484 41.6575 36.6484 39.9823Z" fill="#08120D"/>
<path d="M47.367 44.5715H49.6203L50.6466 42.4715C52.0741 42.4715 53.5016 42.4715 54.9291 42.4715L55.9555 44.5715H58.256L54.0797 35.3695H51.5432L47.367 44.5715ZM51.614 40.4306C52.0033 39.6165 52.3809 38.7789 52.7702 37.9059H52.8056C53.1949 38.7789 53.5724 39.6165 53.9617 40.4306H51.614Z" fill="#08120D"/>
<path d="M69.5914 44.5373H65.1793C61.9705 44.5373 60.0711 42.6245 60.0711 39.902C60.0711 37.426 61.6284 35.3841 65.3091 35.3841H69.5914V44.5373ZM67.4208 42.6128C67.4208 40.8995 67.4208 39.0219 67.4208 37.3086H65.8518C64.4597 37.3086 62.348 37.3086 62.348 39.9959C62.348 42.2373 63.9052 42.6128 65.4389 42.6128H67.4208Z" fill="#08120D"/>
<circle cx="40" cy="40" r="39.4" stroke="#08120D" stroke-width="1.2"/>
<circle cx="40" cy="40" r="37.5" stroke="#08120D"/>
<circle cx="40" cy="40" r="35.85" stroke="#08120D" stroke-width="0.3"/>
</svg>
