<svg width="114" height="97" viewBox="0 0 114 97" fill="none" xmlns="http://www.w3.org/2000/svg">
<path d="M102.334 56.6694C102.334 69.1927 97.2619 80.5261 89.0565 88.7257L97.0692 96.7384C102.339 91.4821 106.518 85.2364 109.366 78.36C112.214 71.4837 113.676 64.1123 113.667 56.6694C113.667 25.3724 88.2972 0.00274658 57.0002 0.00274658C25.7032 0.00274658 0.333542 25.3724 0.333542 56.6694C0.324053 64.1124 1.78549 71.4838 4.63387 78.3602C7.48225 85.2366 11.6614 91.4823 16.9312 96.7384L24.9439 88.7257C19.6725 83.4541 15.7826 76.9639 13.6187 69.8299C11.4547 62.6958 11.0836 55.1382 12.538 47.8265C13.9925 40.5148 17.2277 33.6746 21.9571 27.9118C26.6866 22.149 32.7642 17.6416 39.6517 14.7886C46.5392 11.9357 54.024 10.8253 61.4431 11.556C68.8622 12.2866 75.9866 14.8356 82.1853 18.9772C88.384 23.1189 93.4656 28.7253 96.98 35.2999C100.494 41.8745 102.333 49.2144 102.334 56.6694ZM75.6605 29.9964L48.5002 53.8361L59.8335 65.1694L83.6732 38.0091L75.6605 29.9964Z" fill="#47554E"/>
</svg>
