<svg width="102" height="107" viewBox="0 0 102 107" fill="none" xmlns="http://www.w3.org/2000/svg">
<path d="M90.6667 45.667H96.3333C97.8362 45.667 99.2776 46.264 100.34 47.3267C101.403 48.3895 102 49.8308 102 51.3337V108C102 109.503 101.403 110.945 100.34 112.007C99.2776 113.07 97.8362 113.667 96.3333 113.667H5.66667C4.16377 113.667 2.72243 113.07 1.65973 112.007C0.597022 110.945 0 109.503 0 108V51.3337C0 49.8308 0.597022 48.3895 1.65973 47.3267C2.72243 46.264 4.16377 45.667 5.66667 45.667H11.3333V40.0003C11.3333 29.4801 15.5125 19.3907 22.9514 11.9518C30.3904 4.51283 40.4797 0.333679 51 0.333679C61.5203 0.333679 71.6096 4.51283 79.0486 11.9518C86.4875 19.3907 90.6667 29.4801 90.6667 40.0003V45.667ZM79.3333 45.667V40.0003C79.3333 32.4859 76.3482 25.2792 71.0347 19.9657C65.7212 14.6521 58.5145 11.667 51 11.667C43.4855 11.667 36.2788 14.6521 30.9653 19.9657C25.6518 25.2792 22.6667 32.4859 22.6667 40.0003V45.667H79.3333ZM45.3333 68.3337V91.0004H56.6667V68.3337H45.3333Z" fill="#47554E"/>
</svg>
