<svg width="102" height="104" viewBox="0 0 102 104" fill="none" xmlns="http://www.w3.org/2000/svg">
<path d="M11.3333 110.666C8.21668 110.666 5.54768 109.555 3.32634 107.334C1.10501 105.112 -0.00376816 102.445 9.62083e-06 99.3323V73.5489L15.5833 55.8406L23.6583 63.9156L12.325 76.6656H89.675L78.625 64.1989L86.7 56.1239L102 73.5489V99.3323C102 102.449 100.889 105.118 98.668 107.339C96.4467 109.561 93.7796 110.669 90.6667 110.666H11.3333ZM43.0667 67.5989L23.375 47.6239C21.2028 45.4517 20.1167 42.76 20.1167 39.5489C20.1167 36.3378 21.2028 33.6461 23.375 31.4739L51.1417 3.70725C53.3139 1.53503 56.0056 0.448914 59.2167 0.448914C62.4278 0.448914 65.1195 1.53503 67.2917 3.70725L87.2667 23.3989C89.4389 25.5711 90.5496 28.2382 90.5987 31.4002C90.6478 34.5622 89.5843 37.2313 87.4083 39.4072L59.075 67.7406C56.9028 69.9128 54.2338 70.9762 51.068 70.9309C47.9022 70.8856 45.2351 69.7749 43.0667 67.5989ZM79.3333 31.3322L59.2167 11.4989L31.1667 39.5489L51.2833 59.3822L79.3333 31.3322Z" fill="#47554E"/>
</svg>
