<svg width="185" height="40" viewBox="0 0 185 40" fill="none" xmlns="http://www.w3.org/2000/svg">
<path d="M0 39.4699L0.472687 0.433735H5.63848L9.52127 27.4699L13.5729 0.433735H18.5698L19.0763 39.4699H15.3623L14.9572 12.3373L11.0744 39.4699H8.06944L4.11913 12.241L3.74773 39.4699H0Z" fill="#08120D"/>
<path d="M26.7983 39.4699V24.5783L21.2612 0.433735H25.9205L29.2968 15.9036L32.4706 0.433735H37.0286L31.559 24.5783V39.4699H26.7983Z" fill="#08120D"/>
<path d="M55.0066 40C53.0033 40 51.4277 39.4377 50.2797 38.3133C49.1543 37.1888 48.3665 35.6626 47.9163 33.7349C47.4661 31.7751 47.241 29.5261 47.241 26.988V13.0602C47.241 10.3936 47.4661 8.08032 47.9163 6.12048C48.3665 4.16064 49.1543 2.6506 50.2797 1.59036C51.4277 0.530121 53.0033 0 55.0066 0C56.8973 0 58.3717 0.465864 59.4296 1.39759C60.51 2.29719 61.2753 3.59839 61.7255 5.3012C62.1757 7.00402 62.4008 8.97992 62.4008 11.2289V14.506H57.6064V11.1325C57.6064 10.0402 57.5613 9.04418 57.4713 8.14458C57.4038 7.24498 57.1899 6.53815 56.8298 6.0241C56.4922 5.47791 55.8957 5.20482 55.0403 5.20482C54.185 5.20482 53.5548 5.49398 53.1496 6.07229C52.7669 6.61847 52.5193 7.37349 52.4068 8.33735C52.2943 9.26908 52.238 10.3293 52.238 11.5181V28.4819C52.238 29.8956 52.3168 31.0683 52.4743 32C52.6319 32.8996 52.9133 33.5904 53.3184 34.0723C53.7461 34.5221 54.3201 34.747 55.0403 34.747C55.8732 34.747 56.4584 34.4739 56.796 33.9277C57.1562 33.3494 57.3813 32.5944 57.4713 31.6626C57.5613 30.7309 57.6064 29.6867 57.6064 28.5301V25.012H62.4008V28.1446C62.4008 30.4578 62.1869 32.5141 61.7593 34.3133C61.3316 36.0803 60.5775 37.4779 59.4971 38.506C58.4392 39.502 56.9423 40 55.0066 40Z" fill="#08120D"/>
<path d="M65.8797 39.4699V0.433735H72.4298C74.2755 0.433735 75.8286 0.755021 77.0891 1.39759C78.3721 2.00803 79.34 3.06827 79.9928 4.57831C80.6681 6.08835 81.0057 8.14458 81.0057 10.747C81.0057 12.3213 80.9044 13.7349 80.7018 14.988C80.4992 16.241 80.1504 17.3173 79.6552 18.2169C79.1825 19.0843 78.5185 19.759 77.6631 20.241L81.4784 39.4699H76.4814L73.1726 21.5904H70.8767V39.4699H65.8797ZM70.8767 17.1084H72.4298C73.3977 17.1084 74.163 16.9157 74.7257 16.5301C75.3109 16.1124 75.7273 15.4699 75.9749 14.6024C76.2225 13.7028 76.3463 12.5622 76.3463 11.1807C76.3463 9.22089 76.0875 7.75904 75.5698 6.79518C75.0746 5.7992 74.118 5.3012 72.6999 5.3012H70.8767V17.1084Z" fill="#08120D"/>
<path d="M84.8056 39.4699V0.433735H96.2852V5.44578H89.8026V16.6747H94.9009V21.6386H89.8026V34.5542H96.3527V39.4699H84.8056Z" fill="#08120D"/>
<path d="M97.8631 39.4699L103.333 0.433735H108.667L114.137 39.4699H109.511L108.431 30.4578H103.67L102.556 39.4699H97.8631ZM104.177 25.9277H107.891L106.034 9.54217L104.177 25.9277Z" fill="#08120D"/>
<path d="M118.336 39.4699V5.68675H113.981V0.433735H127.621V5.68675H123.333V39.4699H118.336Z" fill="#08120D"/>
<path d="M130.244 39.4699V0.433735H135.174V39.4699H130.244Z" fill="#08120D"/>
<path d="M143.594 39.4699L138.091 0.433735H142.514L146.126 28.0482L149.503 0.433735H154.027L148.523 39.4699H143.594Z" fill="#08120D"/>
<path d="M156.817 39.4699V0.433735H168.296V5.44578H161.814V16.6747H166.912V21.6386H161.814V34.5542H168.364V39.4699H156.817Z" fill="#08120D"/>
<path d="M178.146 40C176.503 40 175.13 39.5502 174.027 38.6506C172.924 37.7189 172.091 36.3695 171.528 34.6024C170.966 32.8353 170.651 30.6667 170.583 28.0964L174.871 26.8916C174.916 28.4016 175.04 29.7349 175.242 30.8916C175.467 32.0482 175.794 32.9478 176.222 33.5904C176.672 34.2008 177.257 34.506 177.977 34.506C178.788 34.506 179.362 34.1687 179.699 33.494C180.037 32.7871 180.206 31.9036 180.206 30.8434C180.206 29.1406 179.936 27.743 179.395 26.6506C178.855 25.5582 178.135 24.4659 177.234 23.3735L173.791 19.0361C172.823 17.8474 172.046 16.5301 171.461 15.0843C170.898 13.6064 170.617 11.7912 170.617 9.63856C170.617 6.55422 171.247 4.17671 172.508 2.50603C173.768 0.835342 175.49 0 177.673 0C178.956 0 180.026 0.289157 180.881 0.86747C181.736 1.41366 182.411 2.18474 182.907 3.18072C183.424 4.17671 183.807 5.31727 184.055 6.60241C184.302 7.85542 184.46 9.18876 184.527 10.6024L180.273 11.6627C180.228 10.4418 180.127 9.3494 179.969 8.38554C179.834 7.42169 179.575 6.66667 179.193 6.12048C178.833 5.5743 178.292 5.3012 177.572 5.3012C176.829 5.3012 176.255 5.65462 175.85 6.36145C175.467 7.03615 175.276 7.88755 175.276 8.91566C175.276 10.2329 175.467 11.3253 175.85 12.1928C176.233 13.0281 176.784 13.8956 177.505 14.7952L180.915 19.0843C182.04 20.4337 182.997 22.0241 183.785 23.8554C184.595 25.6546 185 27.8394 185 30.4096C185 32.2731 184.707 33.9277 184.122 35.3735C183.559 36.8193 182.76 37.9598 181.725 38.7952C180.712 39.5984 179.519 40 178.146 40Z" fill="#08120D"/>
</svg>
