<svg width="199" height="40" viewBox="0 0 199 40" fill="none" xmlns="http://www.w3.org/2000/svg">
<path d="M0 39.4699V0.433735H3.708L10.8 22.6988V0.433735H15.192V39.4699H11.664L4.536 16.1446V39.4699H0Z" fill="#08120D"/>
<path d="M19.6172 39.4699V0.433735H31.8572V5.44578H24.9452V16.6747H30.3812V21.6386H24.9452V34.5542H31.9292V39.4699H19.6172Z" fill="#08120D"/>
<path d="M38.0756 39.4699L33.9356 0.433735H38.3996L40.8116 25.7349L43.8356 0.530122H47.4716L50.5676 25.7349L52.9436 0.433735H57.3356L53.2676 39.4699H48.9476L45.7076 13.3012L42.5036 39.4699H38.0756Z" fill="#08120D"/>
<path d="M77.2464 40C75.1104 40 73.4304 39.4377 72.2064 38.3133C71.0064 37.1888 70.1664 35.6626 69.6864 33.7349C69.2064 31.7751 68.9664 29.5261 68.9664 26.988V13.0602C68.9664 10.3936 69.2064 8.08032 69.6864 6.12048C70.1664 4.16064 71.0064 2.6506 72.2064 1.59036C73.4304 0.530121 75.1104 0 77.2464 0C79.2624 0 80.8344 0.465864 81.9624 1.39759C83.1144 2.29719 83.9304 3.59839 84.4104 5.3012C84.8904 7.00402 85.1304 8.97992 85.1304 11.2289V14.506H80.0184V11.1325C80.0184 10.0402 79.9704 9.04418 79.8744 8.14458C79.8024 7.24498 79.5744 6.53815 79.1904 6.0241C78.8304 5.47791 78.1944 5.20482 77.2824 5.20482C76.3704 5.20482 75.6984 5.49398 75.2664 6.07229C74.8584 6.61847 74.5944 7.37349 74.4744 8.33735C74.3544 9.26908 74.2944 10.3293 74.2944 11.5181V28.4819C74.2944 29.8956 74.3784 31.0683 74.5464 32C74.7144 32.8996 75.0144 33.5904 75.4464 34.0723C75.9024 34.5221 76.5144 34.747 77.2824 34.747C78.1704 34.747 78.7944 34.4739 79.1544 33.9277C79.5384 33.3494 79.7784 32.5944 79.8744 31.6626C79.9704 30.7309 80.0184 29.6867 80.0184 28.5301V25.012H85.1304V28.1446C85.1304 30.4578 84.9024 32.5141 84.4464 34.3133C83.9904 36.0803 83.1864 37.4779 82.0344 38.506C80.9064 39.502 79.3104 40 77.2464 40Z" fill="#08120D"/>
<path d="M88.8398 39.4699V0.433735H95.8238C97.7918 0.433735 99.4478 0.755021 100.792 1.39759C102.16 2.00803 103.192 3.06827 103.888 4.57831C104.608 6.08835 104.968 8.14458 104.968 10.747C104.968 12.3213 104.86 13.7349 104.644 14.988C104.428 16.241 104.056 17.3173 103.528 18.2169C103.024 19.0843 102.316 19.759 101.404 20.241L105.472 39.4699H100.144L96.6158 21.5904H94.1678V39.4699H88.8398ZM94.1678 17.1084H95.8238C96.8558 17.1084 97.6718 16.9157 98.2718 16.5301C98.8958 16.1124 99.3398 15.4699 99.6038 14.6024C99.8678 13.7028 99.9998 12.5622 99.9998 11.1807C99.9998 9.22089 99.7238 7.75904 99.1718 6.79518C98.6438 5.7992 97.6238 5.3012 96.1118 5.3012H94.1678V17.1084Z" fill="#08120D"/>
<path d="M109.02 39.4699V0.433735H121.26V5.44578H114.348V16.6747H119.784V21.6386H114.348V34.5542H121.332V39.4699H109.02Z" fill="#08120D"/>
<path d="M122.942 39.4699L128.774 0.433735H134.462L140.294 39.4699H135.362L134.21 30.4578H129.134L127.946 39.4699H122.942ZM129.674 25.9277H133.634L131.654 9.54217L129.674 25.9277Z" fill="#08120D"/>
<path d="M144.771 39.4699V5.68675H140.127V0.433735H154.671V5.68675H150.099V39.4699H144.771Z" fill="#08120D"/>
<path d="M157.468 39.4699V0.433735H162.724V39.4699H157.468Z" fill="#08120D"/>
<path d="M171.702 39.4699L165.834 0.433735H170.55L174.402 28.0482L178.002 0.433735H182.826L176.958 39.4699H171.702Z" fill="#08120D"/>
<path d="M185.801 39.4699V0.433735H198.041V5.44578H191.129V16.6747H196.565V21.6386H191.129V34.5542H198.113V39.4699H185.801Z" fill="#08120D"/>
</svg>
