<svg width="125" height="40" viewBox="0 0 125 40" fill="none" xmlns="http://www.w3.org/2000/svg">
<path d="M0 39.4699V0.433735H3.708L10.8 22.6988V0.433735H15.192V39.4699H11.664L4.536 16.1446V39.4699H0Z" fill="#08120D"/>
<path d="M19.6172 39.4699V0.433735H31.8572V5.44578H24.9452V16.6747H30.3812V21.6386H24.9452V34.5542H31.9292V39.4699H19.6172Z" fill="#08120D"/>
<path d="M38.0756 39.4699L33.9356 0.433735H38.3996L40.8116 25.7349L43.8356 0.530122H47.4716L50.5676 25.7349L52.9436 0.433735H57.3356L53.2676 39.4699H48.9476L45.7076 13.3012L42.5036 39.4699H38.0756Z" fill="#08120D"/>
<path d="M76.7424 40C74.9904 40 73.5264 39.5502 72.3504 38.6506C71.1744 37.7189 70.2864 36.3695 69.6864 34.6024C69.0864 32.8353 68.7504 30.6667 68.6784 28.0964L73.2504 26.8916C73.2984 28.4016 73.4304 29.7349 73.6464 30.8916C73.8864 32.0482 74.2344 32.9478 74.6904 33.5904C75.1704 34.2008 75.7944 34.506 76.5624 34.506C77.4264 34.506 78.0384 34.1687 78.3984 33.494C78.7584 32.7871 78.9384 31.9036 78.9384 30.8434C78.9384 29.1406 78.6504 27.743 78.0744 26.6506C77.4984 25.5582 76.7304 24.4659 75.7704 23.3735L72.0984 19.0361C71.0664 17.8474 70.2384 16.5301 69.6144 15.0843C69.0144 13.6064 68.7144 11.7912 68.7144 9.63856C68.7144 6.55422 69.3864 4.17671 70.7304 2.50603C72.0744 0.835342 73.9104 0 76.2384 0C77.6064 0 78.7464 0.289157 79.6584 0.86747C80.5704 1.41366 81.2904 2.18474 81.8184 3.18072C82.3704 4.17671 82.7784 5.31727 83.0424 6.60241C83.3064 7.85542 83.4744 9.18876 83.5464 10.6024L79.0104 11.6627C78.9624 10.4418 78.8544 9.3494 78.6864 8.38554C78.5424 7.42169 78.2664 6.66667 77.8584 6.12048C77.4744 5.5743 76.8984 5.3012 76.1304 5.3012C75.3384 5.3012 74.7264 5.65462 74.2944 6.36145C73.8864 7.03615 73.6824 7.88755 73.6824 8.91566C73.6824 10.2329 73.8864 11.3253 74.2944 12.1928C74.7024 13.0281 75.2904 13.8956 76.0584 14.7952L79.6944 19.0843C80.8944 20.4337 81.9144 22.0241 82.7544 23.8554C83.6184 25.6546 84.0504 27.8394 84.0504 30.4096C84.0504 32.2731 83.7384 33.9277 83.1144 35.3735C82.5144 36.8193 81.6624 37.9598 80.5584 38.7952C79.4784 39.5984 78.2064 40 76.7424 40Z" fill="#08120D"/>
<path d="M87.3315 39.4699V0.433735H92.5875V39.4699H87.3315Z" fill="#08120D"/>
<path d="M100.018 39.4699V5.68675H95.3736V0.433735H109.918V5.68675H105.346V39.4699H100.018Z" fill="#08120D"/>
<path d="M112.57 39.4699V0.433735H124.81V5.44578H117.898V16.6747H123.334V21.6386H117.898V34.5542H124.882V39.4699H112.57Z" fill="#08120D"/>
</svg>
