<svg width="58" height="23" viewBox="0 0 58 23" fill="none" xmlns="http://www.w3.org/2000/svg">
<path d="M0 22.2084V0.738554H4.76C5.73333 0.738554 6.52 0.977109 7.12 1.45422C7.73333 1.93133 8.18 2.62932 8.46 3.54819C8.75333 4.4494 8.9 5.54498 8.9 6.83494C8.9 8.23092 8.72 9.36185 8.36 10.2277C8 11.0759 7.49333 11.6944 6.84 12.0831C6.2 12.4719 5.44 12.6663 4.56 12.6663H2.96V22.2084H0ZM2.96 9.90964H4.08C4.61333 9.90964 5.02667 9.81245 5.32 9.61807C5.62667 9.40602 5.83333 9.07912 5.94 8.63735C6.06 8.17791 6.12 7.56827 6.12 6.80843C6.12 6.03092 6.07333 5.40362 5.98 4.92651C5.9 4.43173 5.71333 4.06948 5.42 3.83976C5.14 3.61004 4.69333 3.49518 4.08 3.49518H2.96V9.90964Z" fill="white"/>
<path d="M8.8675 22.2084L12.1075 0.738554H15.2675L18.5075 22.2084H15.7675L15.1275 17.2518H12.3075L11.6475 22.2084H8.8675ZM12.6075 14.7602H14.8075L13.7075 5.74819L12.6075 14.7602Z" fill="white"/>
<path d="M24.1386 22.5C23.1653 22.5 22.3519 22.2526 21.6986 21.7578C21.0453 21.2454 20.5519 20.5032 20.2186 19.5313C19.8853 18.5594 19.6986 17.3667 19.6586 15.953L22.1986 15.2904C22.2253 16.1209 22.2986 16.8542 22.4186 17.4904C22.5519 18.1265 22.7453 18.6213 22.9986 18.9747C23.2653 19.3104 23.6119 19.4783 24.0386 19.4783C24.5186 19.4783 24.8586 19.2928 25.0586 18.9217C25.2586 18.5329 25.3586 18.047 25.3586 17.4639C25.3586 16.5273 25.1986 15.7586 24.8786 15.1578C24.5586 14.557 24.1319 13.9562 23.5986 13.3554L21.5586 10.9699C20.9853 10.3161 20.5253 9.59157 20.1786 8.79639C19.8453 7.98353 19.6786 6.98514 19.6786 5.80121C19.6786 4.10482 20.0519 2.79719 20.7986 1.87831C21.5453 0.959438 22.5653 0.5 23.8586 0.5C24.6186 0.5 25.2519 0.659036 25.7586 0.977109C26.2653 1.27751 26.6653 1.70161 26.9586 2.2494C27.2653 2.79719 27.4919 3.4245 27.6386 4.13133C27.7853 4.82048 27.8786 5.55382 27.9186 6.33133L25.3986 6.91446C25.3719 6.24297 25.3119 5.64217 25.2186 5.11205C25.1386 4.58193 24.9853 4.16667 24.7586 3.86627C24.5453 3.56586 24.2253 3.41566 23.7986 3.41566C23.3586 3.41566 23.0186 3.61004 22.7786 3.9988C22.5519 4.36988 22.4386 4.83815 22.4386 5.40362C22.4386 6.12811 22.5519 6.72892 22.7786 7.20602C23.0053 7.66546 23.3319 8.14257 23.7586 8.63735L25.7786 10.9964C26.4453 11.7386 27.0119 12.6133 27.4786 13.6205C27.9586 14.61 28.1986 15.8116 28.1986 17.2253C28.1986 18.2502 28.0253 19.1602 27.6786 19.9554C27.3453 20.7506 26.8719 21.3779 26.2586 21.8373C25.6586 22.2791 24.9519 22.5 24.1386 22.5Z" fill="white"/>
<path d="M33.8652 22.5C32.8918 22.5 32.0785 22.2526 31.4252 21.7578C30.7718 21.2454 30.2785 20.5032 29.9452 19.5313C29.6118 18.5594 29.4252 17.3667 29.3852 15.953L31.9252 15.2904C31.9518 16.1209 32.0252 16.8542 32.1452 17.4904C32.2785 18.1265 32.4718 18.6213 32.7252 18.9747C32.9918 19.3104 33.3385 19.4783 33.7652 19.4783C34.2452 19.4783 34.5852 19.2928 34.7852 18.9217C34.9852 18.5329 35.0852 18.047 35.0852 17.4639C35.0852 16.5273 34.9252 15.7586 34.6052 15.1578C34.2852 14.557 33.8585 13.9562 33.3252 13.3554L31.2852 10.9699C30.7118 10.3161 30.2518 9.59157 29.9052 8.79639C29.5718 7.98353 29.4052 6.98514 29.4052 5.80121C29.4052 4.10482 29.7785 2.79719 30.5252 1.87831C31.2718 0.959438 32.2918 0.5 33.5852 0.5C34.3452 0.5 34.9785 0.659036 35.4852 0.977109C35.9918 1.27751 36.3918 1.70161 36.6852 2.2494C36.9918 2.79719 37.2185 3.4245 37.3652 4.13133C37.5118 4.82048 37.6052 5.55382 37.6452 6.33133L35.1252 6.91446C35.0985 6.24297 35.0385 5.64217 34.9452 5.11205C34.8652 4.58193 34.7118 4.16667 34.4852 3.86627C34.2718 3.56586 33.9518 3.41566 33.5252 3.41566C33.0852 3.41566 32.7452 3.61004 32.5052 3.9988C32.2785 4.36988 32.1652 4.83815 32.1652 5.40362C32.1652 6.12811 32.2785 6.72892 32.5052 7.20602C32.7318 7.66546 33.0585 8.14257 33.4852 8.63735L35.5052 10.9964C36.1718 11.7386 36.7385 12.6133 37.2052 13.6205C37.6852 14.61 37.9252 15.8116 37.9252 17.2253C37.9252 18.2502 37.7518 19.1602 37.4052 19.9554C37.0718 20.7506 36.5985 21.3779 35.9852 21.8373C35.3852 22.2791 34.6785 22.5 33.8652 22.5Z" fill="white"/>
<path d="M39.668 22.2084V0.738554H46.468V3.49518H42.628V9.67109H45.648V12.4012H42.628V19.5048H46.508V22.2084H39.668Z" fill="white"/>
<path d="M48.2227 22.2084V0.738554H52.0427C53.3627 0.738554 54.3893 0.977109 55.1227 1.45422C55.8693 1.93133 56.396 2.66466 56.7027 3.65422C57.0227 4.64378 57.1827 5.89839 57.1827 7.41807V15.2639C57.1827 16.8189 57.0227 18.1177 56.7027 19.1602C56.396 20.1851 55.876 20.9538 55.1427 21.4663C54.4227 21.961 53.4293 22.2084 52.1627 22.2084H48.2227ZM51.1827 19.4783H52.0827C52.7627 19.4783 53.2493 19.3193 53.5427 19.0012C53.836 18.6831 54.016 18.2237 54.0827 17.6229C54.1493 17.0044 54.1827 16.2534 54.1827 15.3699V7.15301C54.1827 6.28715 54.136 5.58916 54.0427 5.05904C53.9493 4.52892 53.756 4.14016 53.4627 3.89277C53.1693 3.64538 52.696 3.52169 52.0427 3.52169H51.1827V19.4783Z" fill="white"/>
</svg>
