<svg width="72" height="23" viewBox="0 0 72 23" fill="none" xmlns="http://www.w3.org/2000/svg">
<path d="M0 21.9756V0.735995H3.88C4.97333 0.735995 5.89333 0.910807 6.64 1.26043C7.4 1.59257 7.97333 2.16945 8.36 2.99106C8.76 3.81267 8.96 4.93147 8.96 6.34744C8.96 7.20401 8.9 7.97318 8.78 8.65495C8.66 9.33671 8.45333 9.92233 8.16 10.4118C7.88 10.8838 7.48667 11.2509 6.98 11.5131L9.24 21.9756H6.28L4.32 12.2473H2.96V21.9756H0ZM2.96 9.8087H3.88C4.45333 9.8087 4.90667 9.70382 5.24 9.49404C5.58667 9.26679 5.83333 8.91716 5.98 8.44517C6.12667 7.9557 6.2 7.33512 6.2 6.58343C6.2 5.51709 6.04667 4.72169 5.74 4.19726C5.44667 3.65534 4.88 3.38439 4.04 3.38439H2.96V9.8087Z" fill="white"/>
<path d="M11.2109 21.9756V0.735995H18.0109V3.46305H14.1709V9.57271H17.1909V12.2735H14.1709V19.301H18.0509V21.9756H11.2109Z" fill="white"/>
<path d="M18.7456 22.5V19.7729C19.1723 19.7729 19.5256 19.738 19.8056 19.6681C20.0856 19.5981 20.299 19.4758 20.4456 19.301C20.6056 19.1087 20.719 18.8377 20.7856 18.4881C20.8523 18.121 20.8856 17.6577 20.8856 17.0983V0.735995H23.8256V17.2557C23.8256 18.4444 23.719 19.4321 23.5056 20.2187C23.2923 20.9879 22.919 21.5648 22.3856 21.9493C21.8656 22.3164 21.1256 22.5 20.1656 22.5H18.7456Z" fill="white"/>
<path d="M26.2891 21.9756V0.735995H33.0891V3.46305H29.2491V9.57271H32.2691V12.2735H29.2491V19.301H33.1291V21.9756H26.2891Z" fill="white"/>
<path d="M39.2038 22.264C38.0171 22.264 37.0838 21.9581 36.4038 21.3462C35.7371 20.7344 35.2704 19.9041 35.0037 18.8552C34.7371 17.7888 34.6037 16.5652 34.6037 15.1841V7.60608C34.6037 6.15515 34.7371 4.8965 35.0037 3.83016C35.2704 2.76381 35.7371 1.94219 36.4038 1.36532C37.0838 0.788439 38.0171 0.5 39.2038 0.5C40.3237 0.5 41.1971 0.753477 41.8237 1.26043C42.4637 1.7499 42.9171 2.45789 43.1838 3.38439C43.4504 4.31089 43.5838 5.38598 43.5838 6.60966V8.39273H40.7438V6.55721C40.7438 5.96285 40.7171 5.42094 40.6637 4.93147C40.6237 4.442 40.4971 4.05741 40.2837 3.77771C40.0837 3.48053 39.7304 3.33194 39.2238 3.33194C38.7171 3.33194 38.3438 3.48927 38.1037 3.80393C37.8771 4.10111 37.7304 4.51192 37.6637 5.03635C37.5971 5.54331 37.5638 6.12018 37.5638 6.76699V15.997C37.5638 16.7662 37.6104 17.4043 37.7038 17.9112C37.7971 18.4007 37.9637 18.7765 38.2038 19.0387C38.4571 19.2835 38.7971 19.4058 39.2238 19.4058C39.7171 19.4058 40.0638 19.2573 40.2638 18.9601C40.4771 18.6454 40.6104 18.2346 40.6637 17.7277C40.7171 17.2207 40.7438 16.6526 40.7438 16.0232V14.1091H43.5838V15.8135C43.5838 17.0721 43.4571 18.1909 43.2038 19.1698C42.9504 20.1313 42.5037 20.8917 41.8638 21.4511C41.2371 21.993 40.3504 22.264 39.2038 22.264Z" fill="white"/>
<path d="M47.2645 21.9756V3.59416H44.6845V0.735995H52.7645V3.59416H50.2245V21.9756H47.2645Z" fill="white"/>
<path d="M54.2383 21.9756V0.735995H61.0383V3.46305H57.1983V9.57271H60.2183V12.2735H57.1983V19.301H61.0783V21.9756H54.2383Z" fill="white"/>
<path d="M62.793 21.9756V0.735995H66.613C67.933 0.735995 68.9596 0.971991 69.693 1.44398C70.4396 1.91597 70.9663 2.64144 71.273 3.62038C71.593 4.59933 71.753 5.84049 71.753 7.34386V15.1055C71.753 16.6438 71.593 17.9287 71.273 18.9601C70.9663 19.974 70.4463 20.7344 69.713 21.2414C68.993 21.7308 67.9996 21.9756 66.733 21.9756H62.793ZM65.753 19.2747H66.653C67.333 19.2747 67.8196 19.1174 68.113 18.8027C68.4063 18.4881 68.5863 18.0336 68.653 17.4392C68.7196 16.8274 68.753 16.0844 68.753 15.2104V7.08165C68.753 6.22507 68.7063 5.53457 68.613 5.01013C68.5196 4.4857 68.3263 4.10111 68.033 3.85638C67.7396 3.61164 67.2663 3.48927 66.613 3.48927H65.753V19.2747Z" fill="white"/>
</svg>
