<svg width="38" height="34" viewBox="0 0 38 34" fill="none" xmlns="http://www.w3.org/2000/svg">
<path d="M18.9998 17.9766L26.0715 25.0466L23.7132 27.405L20.6665 24.3583V33.6666H17.3332V24.355L14.2865 27.405L11.9282 25.0466L18.9998 17.9766ZM18.9998 0.333313C21.8615 0.333449 24.6233 1.38517 26.7601 3.28851C28.897 5.19185 30.26 7.81409 30.5898 10.6566C32.6636 11.2223 34.4727 12.4988 35.7009 14.2629C36.929 16.0271 37.4981 18.1668 37.3087 20.308C37.1193 22.4492 36.1834 24.4558 34.6646 25.977C33.1458 27.4981 31.1407 28.4372 28.9998 28.63V25.3333C29.0025 22.7119 27.9756 20.1942 26.1404 18.3224C24.3052 16.4505 21.8083 15.3742 19.1874 15.325C16.5664 15.2759 14.0309 16.2578 12.1268 18.0596C10.2227 19.8613 9.10216 22.3386 9.00649 24.9583L8.99982 25.3333V28.63C6.85891 28.4372 4.85383 27.4981 3.33505 25.977C1.81626 24.4558 0.880369 22.4492 0.690947 20.308C0.501526 18.1668 1.07062 16.0271 2.29877 14.2629C3.52692 12.4988 5.336 11.2223 7.40982 10.6566C7.73933 7.81394 9.10217 5.1915 11.2391 3.28809C13.3761 1.38468 16.1381 0.333085 18.9998 0.333313Z" fill="black"/>
</svg>
