<svg width="273" height="40" viewBox="0 0 273 40" fill="none" xmlns="http://www.w3.org/2000/svg">
<path d="M5.868 39.4699L0 0.433735H4.716L8.568 28.0482L12.168 0.433735H16.992L11.124 39.4699H5.868Z" fill="#08120D"/>
<path d="M27.5701 40C25.5061 40 23.8621 39.4859 22.6381 38.4578C21.4141 37.4297 20.5381 35.9518 20.0101 34.0241C19.4821 32.0964 19.2181 29.8153 19.2181 27.1807V12.5783C19.2181 9.94378 19.4821 7.69478 20.0101 5.83133C20.5381 3.93574 21.4141 2.48996 22.6381 1.49398C23.8621 0.497992 25.5061 0 27.5701 0C29.6821 0 31.3381 0.497992 32.5381 1.49398C33.7621 2.48996 34.6381 3.93574 35.1661 5.83133C35.7181 7.69478 35.9941 9.94378 35.9941 12.5783V27.2289C35.9941 29.8313 35.7181 32.0964 35.1661 34.0241C34.6381 35.9197 33.7621 37.3976 32.5381 38.4578C31.3381 39.4859 29.6821 40 27.5701 40ZM27.5701 34.747C28.4581 34.747 29.1061 34.49 29.5141 33.9759C29.9461 33.4618 30.2341 32.755 30.3781 31.8554C30.5221 30.9558 30.5941 29.9759 30.5941 28.9157V10.9398C30.5941 9.84739 30.5221 8.86747 30.3781 8C30.2341 7.13253 29.9461 6.45783 29.5141 5.9759C29.1061 5.46185 28.4581 5.20482 27.5701 5.20482C26.7301 5.20482 26.0941 5.46185 25.6621 5.9759C25.2301 6.45783 24.9421 7.13253 24.7981 8C24.6541 8.86747 24.5821 9.84739 24.5821 10.9398V28.9157C24.5821 29.9759 24.6421 30.9558 24.7621 31.8554C24.9061 32.755 25.1941 33.4618 25.6261 33.9759C26.0581 34.49 26.7061 34.747 27.5701 34.747Z" fill="#08120D"/>
<path d="M42.7106 39.4699V5.68675H38.0666V0.433735H52.6106V5.68675H48.0386V39.4699H42.7106Z" fill="#08120D"/>
<path d="M55.2634 39.4699V0.433735H67.5034V5.44578H60.5914V16.6747H66.0274V21.6386H60.5914V34.5542H67.5754V39.4699H55.2634Z" fill="#08120D"/>
<path d="M79.4157 39.4699V0.433735H91.4037V5.3494H84.7437V16.7229H90.1797V21.6867H84.7437V39.4699H79.4157Z" fill="#08120D"/>
<path d="M102.207 40C100.143 40 98.4988 39.4859 97.2748 38.4578C96.0508 37.4297 95.1748 35.9518 94.6468 34.0241C94.1188 32.0964 93.8548 29.8153 93.8548 27.1807V12.5783C93.8548 9.94378 94.1188 7.69478 94.6468 5.83133C95.1748 3.93574 96.0508 2.48996 97.2748 1.49398C98.4988 0.497992 100.143 0 102.207 0C104.319 0 105.975 0.497992 107.175 1.49398C108.399 2.48996 109.275 3.93574 109.803 5.83133C110.355 7.69478 110.631 9.94378 110.631 12.5783V27.2289C110.631 29.8313 110.355 32.0964 109.803 34.0241C109.275 35.9197 108.399 37.3976 107.175 38.4578C105.975 39.4859 104.319 40 102.207 40ZM102.207 34.747C103.095 34.747 103.743 34.49 104.151 33.9759C104.583 33.4618 104.871 32.755 105.015 31.8554C105.159 30.9558 105.231 29.9759 105.231 28.9157V10.9398C105.231 9.84739 105.159 8.86747 105.015 8C104.871 7.13253 104.583 6.45783 104.151 5.9759C103.743 5.46185 103.095 5.20482 102.207 5.20482C101.367 5.20482 100.731 5.46185 100.299 5.9759C99.8668 6.45783 99.5788 7.13253 99.4348 8C99.2908 8.86747 99.2188 9.84739 99.2188 10.9398V28.9157C99.2188 29.9759 99.2788 30.9558 99.3988 31.8554C99.5428 32.755 99.8308 33.4618 100.263 33.9759C100.695 34.49 101.343 34.747 102.207 34.747Z" fill="#08120D"/>
<path d="M114.572 39.4699V0.433735H121.556C123.524 0.433735 125.18 0.755021 126.524 1.39759C127.892 2.00803 128.924 3.06827 129.62 4.57831C130.34 6.08835 130.7 8.14458 130.7 10.747C130.7 12.3213 130.592 13.7349 130.376 14.988C130.16 16.241 129.788 17.3173 129.26 18.2169C128.756 19.0843 128.048 19.759 127.136 20.241L131.204 39.4699H125.876L122.348 21.5904H119.9V39.4699H114.572ZM119.9 17.1084H121.556C122.588 17.1084 123.404 16.9157 124.004 16.5301C124.628 16.1124 125.072 15.4699 125.336 14.6024C125.6 13.7028 125.732 12.5622 125.732 11.1807C125.732 9.22089 125.456 7.75904 124.904 6.79518C124.376 5.7992 123.356 5.3012 121.844 5.3012H119.9V17.1084Z" fill="#08120D"/>
<path d="M151.354 40C149.218 40 147.538 39.4377 146.314 38.3133C145.114 37.1888 144.274 35.6626 143.794 33.7349C143.314 31.7751 143.074 29.5261 143.074 26.988V13.0602C143.074 10.3936 143.314 8.08032 143.794 6.12048C144.274 4.16064 145.114 2.6506 146.314 1.59036C147.538 0.530121 149.218 0 151.354 0C153.37 0 154.942 0.465864 156.07 1.39759C157.222 2.29719 158.038 3.59839 158.518 5.3012C158.998 7.00402 159.238 8.97992 159.238 11.2289V14.506H154.126V11.1325C154.126 10.0402 154.078 9.04418 153.982 8.14458C153.91 7.24498 153.682 6.53815 153.298 6.0241C152.938 5.47791 152.302 5.20482 151.39 5.20482C150.478 5.20482 149.806 5.49398 149.374 6.07229C148.966 6.61847 148.702 7.37349 148.582 8.33735C148.462 9.26908 148.402 10.3293 148.402 11.5181V28.4819C148.402 29.8956 148.486 31.0683 148.654 32C148.822 32.8996 149.122 33.5904 149.554 34.0723C150.01 34.5221 150.622 34.747 151.39 34.747C152.278 34.747 152.902 34.4739 153.262 33.9277C153.646 33.3494 153.886 32.5944 153.982 31.6626C154.078 30.7309 154.126 29.6867 154.126 28.5301V25.012H159.238V28.1446C159.238 30.4578 159.01 32.5141 158.554 34.3133C158.098 36.0803 157.294 37.4779 156.142 38.506C155.014 39.502 153.418 40 151.354 40Z" fill="#08120D"/>
<path d="M162.947 39.4699V0.433735H169.931C171.899 0.433735 173.555 0.755021 174.899 1.39759C176.267 2.00803 177.299 3.06827 177.995 4.57831C178.715 6.08835 179.075 8.14458 179.075 10.747C179.075 12.3213 178.967 13.7349 178.751 14.988C178.535 16.241 178.163 17.3173 177.635 18.2169C177.131 19.0843 176.423 19.759 175.511 20.241L179.579 39.4699H174.251L170.723 21.5904H168.275V39.4699H162.947ZM168.275 17.1084H169.931C170.963 17.1084 171.779 16.9157 172.379 16.5301C173.003 16.1124 173.447 15.4699 173.711 14.6024C173.975 13.7028 174.107 12.5622 174.107 11.1807C174.107 9.22089 173.831 7.75904 173.279 6.79518C172.751 5.7992 171.731 5.3012 170.219 5.3012H168.275V17.1084Z" fill="#08120D"/>
<path d="M183.127 39.4699V0.433735H195.367V5.44578H188.455V16.6747H193.891V21.6386H188.455V34.5542H195.439V39.4699H183.127Z" fill="#08120D"/>
<path d="M197.049 39.4699L202.881 0.433735H208.569L214.401 39.4699H209.469L208.317 30.4578H203.241L202.053 39.4699H197.049ZM203.781 25.9277H207.741L205.761 9.54217L203.781 25.9277Z" fill="#08120D"/>
<path d="M218.879 39.4699V5.68675H214.235V0.433735H228.779V5.68675H224.207V39.4699H218.879Z" fill="#08120D"/>
<path d="M231.575 39.4699V0.433735H236.831V39.4699H231.575Z" fill="#08120D"/>
<path d="M245.809 39.4699L239.941 0.433735H244.657L248.509 28.0482L252.109 0.433735H256.933L251.065 39.4699H245.809Z" fill="#08120D"/>
<path d="M259.908 39.4699V0.433735H272.148V5.44578H265.236V16.6747H270.672V21.6386H265.236V34.5542H272.22V39.4699H259.908Z" fill="#08120D"/>
</svg>
