<svg width="136" height="23" viewBox="0 0 136 23" fill="none" xmlns="http://www.w3.org/2000/svg">
<path d="M3.26 22.2084L0 0.738554H2.62L4.76 15.9265L6.76 0.738554H9.44L6.18 22.2084H3.26Z" fill="white"/>
<path d="M15.3167 22.5C14.1701 22.5 13.2567 22.2173 12.5767 21.6518C11.8967 21.0863 11.4101 20.2735 11.1167 19.2133C10.8234 18.153 10.6767 16.8984 10.6767 15.4494V7.41807C10.6767 5.96908 10.8234 4.73213 11.1167 3.70723C11.4101 2.66466 11.8967 1.86948 12.5767 1.32169C13.2567 0.773896 14.1701 0.5 15.3167 0.5C16.4901 0.5 17.4101 0.773896 18.0767 1.32169C18.7567 1.86948 19.2434 2.66466 19.5367 3.70723C19.8434 4.73213 19.9967 5.96908 19.9967 7.41807V15.4759C19.9967 16.9072 19.8434 18.153 19.5367 19.2133C19.2434 20.2558 18.7567 21.0687 18.0767 21.6518C17.4101 22.2173 16.4901 22.5 15.3167 22.5ZM15.3167 19.6108C15.8101 19.6108 16.1701 19.4695 16.3967 19.1867C16.6367 18.904 16.7967 18.5153 16.8767 18.0205C16.9567 17.5257 16.9967 16.9867 16.9967 16.4036V6.51687C16.9967 5.91606 16.9567 5.37711 16.8767 4.9C16.7967 4.42289 16.6367 4.05181 16.3967 3.78675C16.1701 3.50402 15.8101 3.36265 15.3167 3.36265C14.8501 3.36265 14.4967 3.50402 14.2567 3.78675C14.0167 4.05181 13.8567 4.42289 13.7767 4.9C13.6967 5.37711 13.6567 5.91606 13.6567 6.51687V16.4036C13.6567 16.9867 13.6901 17.5257 13.7567 18.0205C13.8367 18.5153 13.9967 18.904 14.2367 19.1867C14.4767 19.4695 14.8367 19.6108 15.3167 19.6108Z" fill="white"/>
<path d="M23.7281 22.2084V3.62771H21.1481V0.738554H29.2281V3.62771H26.6881V22.2084H23.7281Z" fill="white"/>
<path d="M30.7019 22.2084V0.738554H37.5019V3.49518H33.6619V9.67109H36.6819V12.4012H33.6619V19.5048H37.5419V22.2084H30.7019Z" fill="white"/>
<path d="M44.1998 22.2084V0.738554H47.1198V22.2084H44.1998Z" fill="white"/>
<path d="M49.6277 22.2084V0.738554H51.6877L55.6277 12.9843V0.738554H58.0677V22.2084H56.1077L52.1477 9.37952V22.2084H49.6277Z" fill="white"/>
<path d="M65.3894 22.2084V0.738554H70.1494C71.1227 0.738554 71.9094 0.977109 72.5094 1.45422C73.1227 1.93133 73.5694 2.62932 73.8494 3.54819C74.1427 4.4494 74.2894 5.54498 74.2894 6.83494C74.2894 8.23092 74.1094 9.36185 73.7494 10.2277C73.3894 11.0759 72.8827 11.6944 72.2294 12.0831C71.5894 12.4719 70.8294 12.6663 69.9494 12.6663H68.3494V22.2084H65.3894ZM68.3494 9.90964H69.4694C70.0027 9.90964 70.416 9.81245 70.7094 9.61807C71.016 9.40603 71.2227 9.07912 71.3294 8.63735C71.4494 8.17791 71.5094 7.56827 71.5094 6.80843C71.5094 6.03092 71.4627 5.40362 71.3694 4.92651C71.2894 4.43173 71.1027 4.06948 70.8094 3.83976C70.5294 3.61004 70.0827 3.49518 69.4694 3.49518H68.3494V9.90964Z" fill="white"/>
<path d="M75.9362 22.2084V0.738554H79.8163C80.9096 0.738554 81.8296 0.915261 82.5762 1.26868C83.3362 1.60442 83.9096 2.18755 84.2962 3.01807C84.6962 3.84859 84.8962 4.97952 84.8962 6.41084C84.8962 7.27671 84.8362 8.05422 84.7162 8.74337C84.5962 9.43253 84.3896 10.0245 84.0963 10.5193C83.8163 10.9964 83.4229 11.3675 82.9163 11.6325L85.1762 22.2084H82.2162L80.2562 12.3747H78.8962V22.2084H75.9362ZM78.8962 9.90964H79.8163C80.3896 9.90964 80.8429 9.80362 81.1762 9.59157C81.5229 9.36185 81.7696 9.00843 81.9163 8.53133C82.0629 8.03655 82.1363 7.40924 82.1363 6.6494C82.1363 5.57149 81.9829 4.76747 81.6762 4.23735C81.3829 3.68956 80.8162 3.41566 79.9762 3.41566H78.8962V9.90964Z" fill="white"/>
<path d="M91.4691 22.5C90.3224 22.5 89.4091 22.2173 88.7291 21.6518C88.0491 21.0863 87.5624 20.2735 87.2691 19.2133C86.9757 18.153 86.8291 16.8984 86.8291 15.4494V7.41807C86.8291 5.96908 86.9757 4.73213 87.2691 3.70723C87.5624 2.66466 88.0491 1.86948 88.7291 1.32169C89.4091 0.773896 90.3224 0.5 91.4691 0.5C92.6424 0.5 93.5624 0.773896 94.2291 1.32169C94.9091 1.86948 95.3957 2.66466 95.6891 3.70723C95.9957 4.73213 96.1491 5.96908 96.1491 7.41807V15.4759C96.1491 16.9072 95.9957 18.153 95.6891 19.2133C95.3957 20.2558 94.9091 21.0687 94.2291 21.6518C93.5624 22.2173 92.6424 22.5 91.4691 22.5ZM91.4691 19.6108C91.9624 19.6108 92.3224 19.4695 92.5491 19.1867C92.7891 18.904 92.9491 18.5153 93.0291 18.0205C93.1091 17.5257 93.1491 16.9867 93.1491 16.4036V6.51687C93.1491 5.91606 93.1091 5.37711 93.0291 4.9C92.9491 4.42289 92.7891 4.05181 92.5491 3.78675C92.3224 3.50402 91.9624 3.36265 91.4691 3.36265C91.0024 3.36265 90.6491 3.50402 90.4091 3.78675C90.1691 4.05181 90.0091 4.42289 89.9291 4.9C89.8491 5.37711 89.8091 5.91606 89.8091 6.51687V16.4036C89.8091 16.9867 89.8424 17.5257 89.9091 18.0205C89.9891 18.5153 90.1491 18.904 90.3891 19.1867C90.6291 19.4695 90.9891 19.6108 91.4691 19.6108Z" fill="white"/>
<path d="M102.699 22.5C101.512 22.5 100.579 22.1908 99.8986 21.5723C99.2319 20.9538 98.7653 20.1145 98.4986 19.0542C98.2319 17.9763 98.0986 16.7394 98.0986 15.3434V7.68313C98.0986 6.21647 98.2319 4.94418 98.4986 3.86627C98.7653 2.78835 99.2319 1.95783 99.8986 1.3747C100.579 0.791567 101.512 0.5 102.699 0.5C103.819 0.5 104.692 0.756225 105.319 1.26868C105.959 1.76345 106.412 2.47912 106.679 3.41566C106.945 4.35221 107.079 5.43896 107.079 6.6759V8.47831H104.239V6.62289C104.239 6.02209 104.212 5.4743 104.159 4.97952C104.119 4.48474 103.992 4.09598 103.779 3.81325C103.579 3.51285 103.225 3.36265 102.719 3.36265C102.212 3.36265 101.839 3.52169 101.599 3.83976C101.372 4.14016 101.225 4.55542 101.159 5.08554C101.092 5.59799 101.059 6.18113 101.059 6.83494V16.1651C101.059 16.9426 101.105 17.5876 101.199 18.1C101.292 18.5948 101.459 18.9747 101.699 19.2398C101.952 19.4871 102.292 19.6108 102.719 19.6108C103.212 19.6108 103.559 19.4606 103.759 19.1602C103.972 18.8422 104.105 18.4269 104.159 17.9145C104.212 17.402 104.239 16.8277 104.239 16.1916V14.2566H107.079V15.9795C107.079 17.2518 106.952 18.3827 106.699 19.3723C106.445 20.3442 105.999 21.1129 105.359 21.6783C104.732 22.2261 103.845 22.5 102.699 22.5Z" fill="white"/>
<path d="M109.139 22.2084V0.738554H115.939V3.49518H112.099V9.67109H115.119V12.4012H112.099V19.5048H115.979V22.2084H109.139Z" fill="white"/>
<path d="M121.774 22.5C120.801 22.5 119.987 22.2526 119.334 21.7578C118.681 21.2454 118.187 20.5032 117.854 19.5313C117.521 18.5594 117.334 17.3667 117.294 15.953L119.834 15.2904C119.861 16.1209 119.934 16.8542 120.054 17.4904C120.187 18.1265 120.381 18.6213 120.634 18.9747C120.901 19.3104 121.247 19.4783 121.674 19.4783C122.154 19.4783 122.494 19.2928 122.694 18.9217C122.894 18.5329 122.994 18.047 122.994 17.4639C122.994 16.5273 122.834 15.7586 122.514 15.1578C122.194 14.557 121.767 13.9562 121.234 13.3554L119.194 10.9699C118.621 10.3161 118.161 9.59157 117.814 8.79639C117.481 7.98353 117.314 6.98514 117.314 5.80121C117.314 4.10482 117.687 2.79719 118.434 1.87831C119.181 0.959438 120.201 0.5 121.494 0.5C122.254 0.5 122.887 0.659036 123.394 0.977109C123.901 1.27751 124.301 1.70161 124.594 2.2494C124.901 2.79719 125.127 3.4245 125.274 4.13133C125.421 4.82048 125.514 5.55382 125.554 6.33133L123.034 6.91446C123.007 6.24297 122.947 5.64217 122.854 5.11205C122.774 4.58193 122.621 4.16667 122.394 3.86627C122.181 3.56586 121.861 3.41566 121.434 3.41566C120.994 3.41566 120.654 3.61004 120.414 3.9988C120.187 4.36988 120.074 4.83815 120.074 5.40362C120.074 6.12811 120.187 6.72892 120.414 7.20602C120.641 7.66546 120.967 8.14257 121.394 8.63735L123.414 10.9964C124.081 11.7386 124.647 12.6133 125.114 13.6205C125.594 14.61 125.834 15.8116 125.834 17.2253C125.834 18.2502 125.661 19.1602 125.314 19.9554C124.981 20.7506 124.507 21.3779 123.894 21.8373C123.294 22.2791 122.587 22.5 121.774 22.5Z" fill="white"/>
<path d="M131.501 22.5C130.527 22.5 129.714 22.2526 129.061 21.7578C128.407 21.2454 127.914 20.5032 127.581 19.5313C127.247 18.5594 127.061 17.3667 127.021 15.953L129.561 15.2904C129.587 16.1209 129.661 16.8542 129.781 17.4904C129.914 18.1265 130.107 18.6213 130.361 18.9747C130.627 19.3104 130.974 19.4783 131.401 19.4783C131.881 19.4783 132.221 19.2928 132.421 18.9217C132.621 18.5329 132.721 18.047 132.721 17.4639C132.721 16.5273 132.561 15.7586 132.241 15.1578C131.921 14.557 131.494 13.9562 130.961 13.3554L128.921 10.9699C128.347 10.3161 127.887 9.59157 127.541 8.79639C127.207 7.98353 127.041 6.98514 127.041 5.80121C127.041 4.10482 127.414 2.79719 128.161 1.87831C128.907 0.959438 129.927 0.5 131.221 0.5C131.981 0.5 132.614 0.659036 133.121 0.977109C133.627 1.27751 134.027 1.70161 134.321 2.2494C134.627 2.79719 134.854 3.4245 135.001 4.13133C135.147 4.82048 135.241 5.55382 135.281 6.33133L132.761 6.91446C132.734 6.24297 132.674 5.64217 132.581 5.11205C132.501 4.58193 132.347 4.16667 132.121 3.86627C131.907 3.56586 131.587 3.41566 131.161 3.41566C130.721 3.41566 130.381 3.61004 130.141 3.9988C129.914 4.36988 129.801 4.83815 129.801 5.40362C129.801 6.12811 129.914 6.72892 130.141 7.20602C130.367 7.66546 130.694 8.14257 131.121 8.63735L133.141 10.9964C133.807 11.7386 134.374 12.6133 134.841 13.6205C135.321 14.61 135.561 15.8116 135.561 17.2253C135.561 18.2502 135.387 19.1602 135.041 19.9554C134.707 20.7506 134.234 21.3779 133.621 21.8373C133.021 22.2791 132.314 22.5 131.501 22.5Z" fill="white"/>
</svg>
