<svg width="296" height="40" viewBox="0 0 296 40" fill="none" xmlns="http://www.w3.org/2000/svg">
<path d="M5.81883 39.4699L0 0.433735H4.67648L8.49621 28.0482L12.066 0.433735H16.8496L11.0308 39.4699H5.81883Z" fill="#08120D"/>
<path d="M27.3391 40C25.2924 40 23.6621 39.4859 22.4484 38.4578C21.2347 37.4297 20.366 35.9518 19.8424 34.0241C19.3188 32.0964 19.0571 29.8153 19.0571 27.1807V12.5783C19.0571 9.94378 19.3188 7.69478 19.8424 5.83133C20.366 3.93574 21.2347 2.48996 22.4484 1.49398C23.6621 0.497992 25.2924 0 27.3391 0C29.4334 0 31.0755 0.497992 32.2654 1.49398C33.4792 2.48996 34.3479 3.93574 34.8714 5.83133C35.4188 7.69478 35.6925 9.94378 35.6925 12.5783V27.2289C35.6925 29.8313 35.4188 32.0964 34.8714 34.0241C34.3479 35.9197 33.4792 37.3976 32.2654 38.4578C31.0755 39.4859 29.4334 40 27.3391 40ZM27.3391 34.747C28.2196 34.747 28.8622 34.49 29.2668 33.9759C29.6952 33.4618 29.9808 32.755 30.1235 31.8554C30.2663 30.9558 30.3377 29.9759 30.3377 28.9157V10.9398C30.3377 9.84739 30.2663 8.86747 30.1235 8C29.9808 7.13253 29.6952 6.45783 29.2668 5.9759C28.8622 5.46185 28.2196 5.20482 27.3391 5.20482C26.5061 5.20482 25.8754 5.46185 25.4471 5.9759C25.0187 6.45783 24.7331 7.13253 24.5903 8C24.4475 8.86747 24.3761 9.84739 24.3761 10.9398V28.9157C24.3761 29.9759 24.4356 30.9558 24.5546 31.8554C24.6974 32.755 24.983 33.4618 25.4114 33.9759C25.8397 34.49 26.4823 34.747 27.3391 34.747Z" fill="#08120D"/>
<path d="M42.3527 39.4699V5.68675H37.7477V0.433735H52.1698V5.68675H47.6361V39.4699H42.3527Z" fill="#08120D"/>
<path d="M54.9431 39.4699V0.433735H60.1551V39.4699H54.9431Z" fill="#08120D"/>
<path d="M64.6313 39.4699V0.433735H68.3082L75.3408 22.6988V0.433735H79.696V39.4699H76.1976L69.1293 16.1446V39.4699H64.6313Z" fill="#08120D"/>
<path d="M91.3309 40C89.427 40 87.9157 39.4538 86.7972 38.3614C85.6786 37.2691 84.8695 35.7269 84.3697 33.7349C83.8937 31.7108 83.6557 29.3333 83.6557 26.6024V13.494C83.6557 10.6988 83.8937 8.28916 84.3697 6.26506C84.8457 4.24097 85.6786 2.6988 86.8686 1.63856C88.0823 0.546185 89.7482 0 91.8663 0C93.8417 0 95.4124 0.4498 96.5785 1.3494C97.7447 2.249 98.5776 3.5502 99.0774 5.25301C99.601 6.92369 99.8628 8.96386 99.8628 11.3735V13.3976H94.8293V11.1807C94.8293 9.92771 94.7579 8.85141 94.6151 7.95181C94.4961 7.05221 94.2343 6.37751 93.8298 5.92771C93.449 5.44578 92.8183 5.20482 91.9377 5.20482C91.0096 5.20482 90.3313 5.51004 89.9029 6.12048C89.4984 6.73092 89.2366 7.53414 89.1176 8.53012C89.0224 9.52611 88.9748 10.6185 88.9748 11.8072V28.1446C88.9748 29.494 89.0581 30.6667 89.2247 31.6626C89.3913 32.6586 89.7007 33.4297 90.1528 33.9759C90.605 34.49 91.2476 34.747 92.0805 34.747C92.9373 34.747 93.5918 34.4578 94.044 33.8795C94.4961 33.3012 94.8055 32.498 94.9721 31.4699C95.1625 30.4418 95.2577 29.2209 95.2577 27.8072V24.1446H92.1519V19.6626H100.006V39.4699H96.6142L96.2215 35.6145C95.8408 36.8996 95.2577 37.9598 94.4723 38.7952C93.7108 39.5984 92.6636 40 91.3309 40Z" fill="#08120D"/>
<path d="M112.706 39.4699V0.433735H117.989V34.5542H124.986V39.4699H112.706Z" fill="#08120D"/>
<path d="M127.874 39.4699V0.433735H133.086V39.4699H127.874Z" fill="#08120D"/>
<path d="M144.844 40C143.107 40 141.655 39.5502 140.489 38.6506C139.323 37.7189 138.442 36.3695 137.848 34.6024C137.253 32.8353 136.919 30.6667 136.848 28.0964L141.382 26.8916C141.429 28.4016 141.56 29.7349 141.774 30.8916C142.012 32.0482 142.357 32.9478 142.81 33.5904C143.286 34.2008 143.904 34.506 144.666 34.506C145.523 34.506 146.13 34.1687 146.487 33.494C146.843 32.7871 147.022 31.9036 147.022 30.8434C147.022 29.1406 146.736 27.743 146.165 26.6506C145.594 25.5582 144.832 24.4659 143.881 23.3735L140.239 19.0361C139.216 17.8474 138.395 16.5301 137.776 15.0843C137.181 13.6064 136.884 11.7912 136.884 9.63856C136.884 6.55422 137.55 4.17671 138.883 2.50603C140.215 0.835342 142.036 0 144.345 0C145.701 0 146.832 0.289157 147.736 0.86747C148.64 1.41366 149.354 2.18474 149.878 3.18072C150.425 4.17671 150.83 5.31727 151.092 6.60241C151.353 7.85542 151.52 9.18876 151.591 10.6024L147.093 11.6627C147.046 10.4418 146.939 9.3494 146.772 8.38554C146.629 7.42169 146.356 6.66667 145.951 6.12048C145.57 5.5743 144.999 5.3012 144.238 5.3012C143.452 5.3012 142.845 5.65462 142.417 6.36145C142.012 7.03615 141.81 7.88755 141.81 8.91566C141.81 10.2329 142.012 11.3253 142.417 12.1928C142.821 13.0281 143.405 13.8956 144.166 14.7952L147.772 19.0843C148.962 20.4337 149.973 22.0241 150.806 23.8554C151.663 25.6546 152.091 27.8394 152.091 30.4096C152.091 32.2731 151.782 33.9277 151.163 35.3735C150.568 36.8193 149.723 37.9598 148.628 38.7952C147.557 39.5984 146.296 40 144.844 40Z" fill="#08120D"/>
<path d="M158.093 39.4699V5.68675H153.488V0.433735H167.911V5.68675H163.377V39.4699H158.093Z" fill="#08120D"/>
<path d="M187.075 40C185.029 40 183.398 39.4859 182.185 38.4578C180.971 37.4297 180.102 35.9518 179.579 34.0241C179.055 32.0964 178.793 29.8153 178.793 27.1807V12.5783C178.793 9.94378 179.055 7.69478 179.579 5.83133C180.102 3.93574 180.971 2.48996 182.185 1.49398C183.398 0.497992 185.029 0 187.075 0C189.17 0 190.812 0.497992 192.002 1.49398C193.215 2.48996 194.084 3.93574 194.608 5.83133C195.155 7.69478 195.429 9.94378 195.429 12.5783V27.2289C195.429 29.8313 195.155 32.0964 194.608 34.0241C194.084 35.9197 193.215 37.3976 192.002 38.4578C190.812 39.4859 189.17 40 187.075 40ZM187.075 34.747C187.956 34.747 188.598 34.49 189.003 33.9759C189.431 33.4618 189.717 32.755 189.86 31.8554C190.003 30.9558 190.074 29.9759 190.074 28.9157V10.9398C190.074 9.84739 190.003 8.86747 189.86 8C189.717 7.13253 189.431 6.45783 189.003 5.9759C188.598 5.46185 187.956 5.20482 187.075 5.20482C186.242 5.20482 185.612 5.46185 185.183 5.9759C184.755 6.45783 184.469 7.13253 184.326 8C184.184 8.86747 184.112 9.84739 184.112 10.9398V28.9157C184.112 29.9759 184.172 30.9558 184.291 31.8554C184.434 32.755 184.719 33.4618 185.148 33.9759C185.576 34.49 186.218 34.747 187.075 34.747Z" fill="#08120D"/>
<path d="M199.337 39.4699V0.433735H211.224V5.3494H204.62V16.7229H210.011V21.6867H204.62V39.4699H199.337Z" fill="#08120D"/>
<path d="M230.046 40C228.309 40 226.857 39.5502 225.691 38.6506C224.525 37.7189 223.644 36.3695 223.049 34.6024C222.454 32.8353 222.121 30.6667 222.05 28.0964L226.584 26.8916C226.631 28.4016 226.762 29.7349 226.976 30.8916C227.214 32.0482 227.559 32.9478 228.011 33.5904C228.487 34.2008 229.106 34.506 229.868 34.506C230.725 34.506 231.331 34.1687 231.688 33.494C232.045 32.7871 232.224 31.9036 232.224 30.8434C232.224 29.1406 231.938 27.743 231.367 26.6506C230.796 25.5582 230.034 24.4659 229.082 23.3735L225.441 19.0361C224.418 17.8474 223.597 16.5301 222.978 15.0843C222.383 13.6064 222.086 11.7912 222.086 9.63856C222.086 6.55422 222.752 4.17671 224.085 2.50603C225.417 0.835342 227.238 0 229.547 0C230.903 0 232.033 0.289157 232.938 0.86747C233.842 1.41366 234.556 2.18474 235.08 3.18072C235.627 4.17671 236.032 5.31727 236.294 6.60241C236.555 7.85542 236.722 9.18876 236.793 10.6024L232.295 11.6627C232.248 10.4418 232.141 9.3494 231.974 8.38554C231.831 7.42169 231.558 6.66667 231.153 6.12048C230.772 5.5743 230.201 5.3012 229.439 5.3012C228.654 5.3012 228.047 5.65462 227.619 6.36145C227.214 7.03615 227.012 7.88755 227.012 8.91566C227.012 10.2329 227.214 11.3253 227.619 12.1928C228.023 13.0281 228.606 13.8956 229.368 14.7952L232.974 19.0843C234.163 20.4337 235.175 22.0241 236.008 23.8554C236.865 25.6546 237.293 27.8394 237.293 30.4096C237.293 32.2731 236.984 33.9277 236.365 35.3735C235.77 36.8193 234.925 37.9598 233.83 38.7952C232.759 39.5984 231.498 40 230.046 40Z" fill="#08120D"/>
<path d="M240.547 39.4699V0.433735H245.759V39.4699H240.547Z" fill="#08120D"/>
<path d="M253.126 39.4699V5.68675H248.521V0.433735H262.943V5.68675H258.41V39.4699H253.126Z" fill="#08120D"/>
<path d="M265.574 39.4699V0.433735H277.711V5.44578H270.857V16.6747H276.248V21.6386H270.857V34.5542H277.783V39.4699H265.574Z" fill="#08120D"/>
<path d="M288.126 40C286.388 40 284.937 39.5502 283.771 38.6506C282.604 37.7189 281.724 36.3695 281.129 34.6024C280.534 32.8353 280.201 30.6667 280.129 28.0964L284.663 26.8916C284.711 28.4016 284.842 29.7349 285.056 30.8916C285.294 32.0482 285.639 32.9478 286.091 33.5904C286.567 34.2008 287.186 34.506 287.947 34.506C288.804 34.506 289.411 34.1687 289.768 33.494C290.125 32.7871 290.303 31.9036 290.303 30.8434C290.303 29.1406 290.018 27.743 289.447 26.6506C288.875 25.5582 288.114 24.4659 287.162 23.3735L283.521 19.0361C282.497 17.8474 281.676 16.5301 281.058 15.0843C280.463 13.6064 280.165 11.7912 280.165 9.63856C280.165 6.55422 280.831 4.17671 282.164 2.50603C283.497 0.835342 285.318 0 287.626 0C288.983 0 290.113 0.289157 291.017 0.86747C291.922 1.41366 292.636 2.18474 293.159 3.18072C293.707 4.17671 294.111 5.31727 294.373 6.60241C294.635 7.85542 294.801 9.18876 294.873 10.6024L290.375 11.6627C290.327 10.4418 290.22 9.3494 290.054 8.38554C289.911 7.42169 289.637 6.66667 289.232 6.12048C288.852 5.5743 288.281 5.3012 287.519 5.3012C286.734 5.3012 286.127 5.65462 285.698 6.36145C285.294 7.03615 285.091 7.88755 285.091 8.91566C285.091 10.2329 285.294 11.3253 285.698 12.1928C286.103 13.0281 286.686 13.8956 287.448 14.7952L291.053 19.0843C292.243 20.4337 293.255 22.0241 294.087 23.8554C294.944 25.6546 295.373 27.8394 295.373 30.4096C295.373 32.2731 295.063 33.9277 294.444 35.3735C293.849 36.8193 293.005 37.9598 291.91 38.7952C290.839 39.5984 289.578 40 288.126 40Z" fill="#08120D"/>
</svg>
