<svg width="219" height="40" viewBox="0 0 219 40" fill="none" xmlns="http://www.w3.org/2000/svg">
<path d="M0 39.4699L5.832 0.433735H11.52L17.352 39.4699H12.42L11.268 30.4578H6.192L5.004 39.4699H0ZM6.732 25.9277H10.692L8.712 9.54217L6.732 25.9277Z" fill="#08120D"/>
<path d="M20.2846 39.4699V0.433735H27.1606C29.5366 0.433735 31.3846 0.86747 32.7046 1.73494C34.0486 2.60241 34.9966 3.93574 35.5486 5.73494C36.1246 7.53414 36.4126 9.81526 36.4126 12.5783V26.8434C36.4126 29.6707 36.1246 32.0321 35.5486 33.9277C34.9966 35.7912 34.0606 37.1888 32.7406 38.1205C31.4446 39.0201 29.6566 39.4699 27.3766 39.4699H20.2846ZM25.6126 34.506H27.2326C28.4566 34.506 29.3326 34.2169 29.8606 33.6386C30.3886 33.0602 30.7126 32.2249 30.8326 31.1325C30.9526 30.008 31.0126 28.6426 31.0126 27.0361V12.0964C31.0126 10.5221 30.9286 9.25301 30.7606 8.28916C30.5926 7.3253 30.2446 6.61847 29.7166 6.16867C29.1886 5.71888 28.3366 5.49398 27.1606 5.49398H25.6126V34.506Z" fill="#08120D"/>
<path d="M47.6677 40C45.9157 40 44.4517 39.5502 43.2757 38.6506C42.0997 37.7189 41.2117 36.3695 40.6117 34.6024C40.0117 32.8353 39.6757 30.6667 39.6037 28.0964L44.1757 26.8916C44.2237 28.4016 44.3557 29.7349 44.5717 30.8916C44.8117 32.0482 45.1597 32.9478 45.6157 33.5904C46.0957 34.2008 46.7197 34.506 47.4877 34.506C48.3517 34.506 48.9637 34.1687 49.3237 33.494C49.6837 32.7871 49.8637 31.9036 49.8637 30.8434C49.8637 29.1406 49.5757 27.743 48.9997 26.6506C48.4237 25.5582 47.6557 24.4659 46.6957 23.3735L43.0237 19.0361C41.9917 17.8474 41.1637 16.5301 40.5397 15.0843C39.9397 13.6064 39.6397 11.7912 39.6397 9.63856C39.6397 6.55422 40.3117 4.17671 41.6557 2.50603C42.9997 0.835342 44.8357 0 47.1637 0C48.5317 0 49.6717 0.289157 50.5837 0.86747C51.4957 1.41366 52.2157 2.18474 52.7437 3.18072C53.2957 4.17671 53.7037 5.31727 53.9677 6.60241C54.2317 7.85542 54.3997 9.18876 54.4717 10.6024L49.9357 11.6627C49.8877 10.4418 49.7797 9.3494 49.6117 8.38554C49.4677 7.42169 49.1917 6.66667 48.7837 6.12048C48.3997 5.5743 47.8237 5.3012 47.0557 5.3012C46.2637 5.3012 45.6517 5.65462 45.2197 6.36145C44.8117 7.03615 44.6077 7.88755 44.6077 8.91566C44.6077 10.2329 44.8117 11.3253 45.2197 12.1928C45.6277 13.0281 46.2157 13.8956 46.9837 14.7952L50.6197 19.0843C51.8197 20.4337 52.8397 22.0241 53.6797 23.8554C54.5437 25.6546 54.9757 27.8394 54.9757 30.4096C54.9757 32.2731 54.6637 33.9277 54.0397 35.3735C53.4397 36.8193 52.5877 37.9598 51.4837 38.7952C50.4037 39.5984 49.1317 40 47.6677 40Z" fill="#08120D"/>
<path d="M65.4207 40C63.5007 40 61.9767 39.4538 60.8487 38.3614C59.7207 37.2691 58.9047 35.7269 58.4007 33.7349C57.9207 31.7108 57.6807 29.3333 57.6807 26.6024V13.494C57.6807 10.6988 57.9207 8.28916 58.4007 6.26506C58.8807 4.24097 59.7207 2.6988 60.9207 1.63856C62.1447 0.546185 63.8247 0 65.9607 0C67.9527 0 69.5367 0.4498 70.7127 1.3494C71.8887 2.249 72.7287 3.5502 73.2327 5.25301C73.7607 6.92369 74.0247 8.96386 74.0247 11.3735V13.3976H68.9487V11.1807C68.9487 9.92771 68.8767 8.85141 68.7327 7.95181C68.6127 7.05221 68.3487 6.37751 67.9407 5.92771C67.5567 5.44578 66.9207 5.20482 66.0327 5.20482C65.0967 5.20482 64.4127 5.51004 63.9807 6.12048C63.5727 6.73092 63.3087 7.53414 63.1887 8.53012C63.0927 9.52611 63.0447 10.6185 63.0447 11.8072V28.1446C63.0447 29.494 63.1287 30.6667 63.2967 31.6626C63.4647 32.6586 63.7767 33.4297 64.2327 33.9759C64.6887 34.49 65.3367 34.747 66.1767 34.747C67.0407 34.747 67.7007 34.4578 68.1567 33.8795C68.6127 33.3012 68.9247 32.498 69.0927 31.4699C69.2847 30.4418 69.3807 29.2209 69.3807 27.8072V24.1446H66.2487V19.6626H74.1687V39.4699H70.7487L70.3527 35.6145C69.9687 36.8996 69.3807 37.9598 68.5887 38.7952C67.8207 39.5984 66.7647 40 65.4207 40Z" fill="#08120D"/>
<path d="M80.892 39.4699V5.68675H76.248V0.433735H90.792V5.68675H86.22V39.4699H80.892Z" fill="#08120D"/>
<path d="M109.543 40C107.791 40 106.327 39.5502 105.151 38.6506C103.975 37.7189 103.087 36.3695 102.487 34.6024C101.887 32.8353 101.551 30.6667 101.479 28.0964L106.051 26.8916C106.099 28.4016 106.231 29.7349 106.447 30.8916C106.687 32.0482 107.035 32.9478 107.491 33.5904C107.971 34.2008 108.595 34.506 109.363 34.506C110.227 34.506 110.839 34.1687 111.199 33.494C111.559 32.7871 111.739 31.9036 111.739 30.8434C111.739 29.1406 111.451 27.743 110.875 26.6506C110.299 25.5582 109.531 24.4659 108.571 23.3735L104.899 19.0361C103.867 17.8474 103.039 16.5301 102.415 15.0843C101.815 13.6064 101.515 11.7912 101.515 9.63856C101.515 6.55422 102.187 4.17671 103.531 2.50603C104.875 0.835342 106.711 0 109.039 0C110.407 0 111.547 0.289157 112.459 0.86747C113.371 1.41366 114.091 2.18474 114.619 3.18072C115.171 4.17671 115.579 5.31727 115.843 6.60241C116.107 7.85542 116.275 9.18876 116.347 10.6024L111.811 11.6627C111.763 10.4418 111.655 9.3494 111.487 8.38554C111.343 7.42169 111.067 6.66667 110.659 6.12048C110.275 5.5743 109.699 5.3012 108.931 5.3012C108.139 5.3012 107.527 5.65462 107.095 6.36145C106.687 7.03615 106.483 7.88755 106.483 8.91566C106.483 10.2329 106.687 11.3253 107.095 12.1928C107.503 13.0281 108.091 13.8956 108.859 14.7952L112.495 19.0843C113.695 20.4337 114.715 22.0241 115.555 23.8554C116.419 25.6546 116.851 27.8394 116.851 30.4096C116.851 32.2731 116.539 33.9277 115.915 35.3735C115.315 36.8193 114.463 37.9598 113.359 38.7952C112.279 39.5984 111.007 40 109.543 40Z" fill="#08120D"/>
<path d="M122.904 39.4699V5.68675H118.26V0.433735H132.804V5.68675H128.232V39.4699H122.904Z" fill="#08120D"/>
<path d="M133.277 39.4699L139.109 0.433735H144.797L150.629 39.4699H145.697L144.545 30.4578H139.469L138.281 39.4699H133.277ZM140.009 25.9277H143.969L141.989 9.54217L140.009 25.9277Z" fill="#08120D"/>
<path d="M153.562 39.4699V0.433735H158.89V17.5904L164.65 0.433735H169.726L164.146 17.8795L170.302 39.4699H165.01L160.114 21.6867L158.89 24.6747V39.4699H153.562Z" fill="#08120D"/>
<path d="M172.866 39.4699V0.433735H178.122V39.4699H172.866Z" fill="#08120D"/>
<path d="M182.636 39.4699V0.433735H186.344L193.436 22.6988V0.433735H197.828V39.4699H194.3L187.172 16.1446V39.4699H182.636Z" fill="#08120D"/>
<path d="M209.561 40C207.641 40 206.117 39.4538 204.989 38.3614C203.861 37.2691 203.045 35.7269 202.541 33.7349C202.061 31.7108 201.821 29.3333 201.821 26.6024V13.494C201.821 10.6988 202.061 8.28916 202.541 6.26506C203.021 4.24097 203.861 2.6988 205.061 1.63856C206.285 0.546185 207.965 0 210.101 0C212.093 0 213.677 0.4498 214.853 1.3494C216.029 2.249 216.869 3.5502 217.373 5.25301C217.901 6.92369 218.165 8.96386 218.165 11.3735V13.3976H213.089V11.1807C213.089 9.92771 213.017 8.85141 212.873 7.95181C212.753 7.05221 212.489 6.37751 212.081 5.92771C211.697 5.44578 211.061 5.20482 210.173 5.20482C209.237 5.20482 208.553 5.51004 208.121 6.12048C207.713 6.73092 207.449 7.53414 207.329 8.53012C207.233 9.52611 207.185 10.6185 207.185 11.8072V28.1446C207.185 29.494 207.269 30.6667 207.437 31.6626C207.605 32.6586 207.917 33.4297 208.373 33.9759C208.829 34.49 209.477 34.747 210.317 34.747C211.181 34.747 211.841 34.4578 212.297 33.8795C212.753 33.3012 213.065 32.498 213.233 31.4699C213.425 30.4418 213.521 29.2209 213.521 27.8072V24.1446H210.389V19.6626H218.309V39.4699H214.889L214.493 35.6145C214.109 36.8996 213.521 37.9598 212.729 38.7952C211.961 39.5984 210.905 40 209.561 40Z" fill="#08120D"/>
</svg>
