<svg width="323" height="41" viewBox="0 0 323 41" fill="none" xmlns="http://www.w3.org/2000/svg">
<path d="M0.719727 39.986L6.55173 0.949848H12.2397L18.0717 39.986H13.1397L11.9877 30.9739H6.91173L5.72373 39.986H0.719727ZM7.45173 26.4438H11.4117L9.43173 10.0583L7.45173 26.4438Z" fill="#08120D"/>
<path d="M21.0043 39.986V0.949848H27.8803C30.2563 0.949848 32.1043 1.38358 33.4243 2.25105C34.7683 3.11852 35.7163 4.45186 36.2683 6.25105C36.8443 8.05025 37.1323 10.3314 37.1323 13.0944V27.3595C37.1323 30.1868 36.8443 32.5482 36.2683 34.4438C35.7163 36.3073 34.7803 37.7049 33.4603 38.6366C32.1643 39.5362 30.3763 39.986 28.0963 39.986H21.0043ZM26.3323 35.0221H27.9523C29.1763 35.0221 30.0523 34.733 30.5803 34.1547C31.1083 33.5764 31.4323 32.741 31.5523 31.6486C31.6723 30.5241 31.7323 29.1587 31.7323 27.5523V12.6125C31.7323 11.0382 31.6483 9.76913 31.4803 8.80527C31.3123 7.84141 30.9643 7.13459 30.4363 6.68479C29.9083 6.23499 29.0563 6.01009 27.8803 6.01009H26.3323V35.0221Z" fill="#08120D"/>
<path d="M45.3668 39.986L39.4988 0.949848H44.2148L48.0668 28.5643L51.6668 0.949848H56.4908L50.6228 39.986H45.3668Z" fill="#08120D"/>
<path d="M59.4653 39.986V0.949848H71.7053V5.9619H64.7933V17.1908H70.2293V22.1547H64.7933V35.0703H71.7773V39.986H59.4653Z" fill="#08120D"/>
<path d="M74.8637 39.986V0.949848H81.8477C83.8157 0.949848 85.4717 1.27113 86.8157 1.91371C88.1837 2.52415 89.2157 3.58439 89.9117 5.09443C90.6317 6.60447 90.9917 8.66069 90.9917 11.2631C90.9917 12.8374 90.8837 14.2511 90.6677 15.5041C90.4517 16.7571 90.0797 17.8334 89.5517 18.733C89.0477 19.6005 88.3397 20.2751 87.4277 20.7571L91.4957 39.986H86.1677L82.6397 22.1065H80.1917V39.986H74.8637ZM80.1917 17.6245H81.8477C82.8797 17.6245 83.6957 17.4318 84.2957 17.0462C84.9197 16.6286 85.3637 15.986 85.6277 15.1185C85.8917 14.2189 86.0237 13.0784 86.0237 11.6968C86.0237 9.737 85.7477 8.27515 85.1957 7.31129C84.6677 6.31531 83.6477 5.81732 82.1357 5.81732H80.1917V17.6245Z" fill="#08120D"/>
<path d="M97.8188 39.986V6.20286H93.1748V0.949848H107.719V6.20286H103.147V39.986H97.8188Z" fill="#08120D"/>
<path d="M110.516 39.986V0.949848H115.772V39.986H110.516Z" fill="#08120D"/>
<path d="M127.63 40.5161C125.878 40.5161 124.414 40.0663 123.238 39.1667C122.062 38.235 121.174 36.8856 120.574 35.1185C119.974 33.3515 119.638 31.1828 119.566 28.6125L124.138 27.4077C124.186 28.9177 124.318 30.2511 124.534 31.4077C124.774 32.5643 125.122 33.4639 125.578 34.1065C126.058 34.7169 126.682 35.0221 127.45 35.0221C128.314 35.0221 128.926 34.6848 129.286 34.0101C129.646 33.3033 129.826 32.4197 129.826 31.3595C129.826 29.6567 129.538 28.2591 128.962 27.1667C128.386 26.0743 127.618 24.982 126.658 23.8896L122.986 19.5523C121.954 18.3635 121.126 17.0462 120.502 15.6004C119.902 14.1225 119.602 12.3073 119.602 10.1547C119.602 7.07033 120.274 4.69282 121.618 3.02214C122.962 1.35146 124.798 0.516113 127.126 0.516113C128.494 0.516113 129.634 0.80527 130.546 1.38358C131.458 1.92977 132.178 2.70085 132.706 3.69684C133.258 4.69282 133.666 5.83338 133.93 7.11852C134.194 8.37154 134.362 9.70487 134.434 11.1185L129.898 12.1788C129.85 10.9579 129.742 9.86551 129.574 8.90166C129.43 7.9378 129.154 7.18278 128.746 6.6366C128.362 6.09041 127.786 5.81732 127.018 5.81732C126.226 5.81732 125.614 6.17073 125.182 6.87756C124.774 7.55226 124.57 8.40367 124.57 9.43178C124.57 10.749 124.774 11.8414 125.182 12.7089C125.59 13.5442 126.178 14.4117 126.946 15.3113L130.582 19.6005C131.782 20.9498 132.802 22.5402 133.642 24.3715C134.506 26.1707 134.938 28.3555 134.938 30.9257C134.938 32.7892 134.626 34.4438 134.002 35.8896C133.402 37.3354 132.55 38.4759 131.446 39.3113C130.366 40.1145 129.094 40.5161 127.63 40.5161Z" fill="#08120D"/>
<path d="M138.075 39.986V0.949848H150.315V5.9619H143.403V17.1908H148.839V22.1547H143.403V35.0703H150.387V39.986H138.075Z" fill="#08120D"/>
<path d="M153.473 39.986V0.949848H160.457C162.425 0.949848 164.081 1.27113 165.425 1.91371C166.793 2.52415 167.825 3.58439 168.521 5.09443C169.241 6.60447 169.601 8.66069 169.601 11.2631C169.601 12.8374 169.493 14.2511 169.277 15.5041C169.061 16.7571 168.689 17.8334 168.161 18.733C167.657 19.6005 166.949 20.2751 166.037 20.7571L170.105 39.986H164.777L161.249 22.1065H158.801V39.986H153.473ZM158.801 17.6245H160.457C161.489 17.6245 162.305 17.4318 162.905 17.0462C163.529 16.6286 163.973 15.986 164.237 15.1185C164.501 14.2189 164.633 13.0784 164.633 11.6968C164.633 9.737 164.357 8.27515 163.805 7.31129C163.277 6.31531 162.257 5.81732 160.745 5.81732H158.801V17.6245Z" fill="#08120D"/>
<path d="M190.327 40.5161C188.263 40.5161 186.619 40.0021 185.395 38.9739C184.171 37.9458 183.295 36.4679 182.767 34.5402C182.239 32.6125 181.975 30.3314 181.975 27.6968V13.0944C181.975 10.4599 182.239 8.21089 182.767 6.34744C183.295 4.45186 184.171 3.00607 185.395 2.01009C186.619 1.01411 188.263 0.516113 190.327 0.516113C192.439 0.516113 194.095 1.01411 195.295 2.01009C196.519 3.00607 197.395 4.45186 197.923 6.34744C198.475 8.21089 198.751 10.4599 198.751 13.0944V27.745C198.751 30.3474 198.475 32.6125 197.923 34.5402C197.395 36.4358 196.519 37.9137 195.295 38.9739C194.095 40.0021 192.439 40.5161 190.327 40.5161ZM190.327 35.2631C191.215 35.2631 191.863 35.0061 192.271 34.492C192.703 33.978 192.991 33.2711 193.135 32.3715C193.279 31.4719 193.351 30.492 193.351 29.4318V11.4559C193.351 10.3635 193.279 9.38358 193.135 8.51611C192.991 7.64864 192.703 6.97395 192.271 6.49202C191.863 5.97796 191.215 5.72093 190.327 5.72093C189.487 5.72093 188.851 5.97796 188.419 6.49202C187.987 6.97395 187.699 7.64864 187.555 8.51611C187.411 9.38358 187.339 10.3635 187.339 11.4559V29.4318C187.339 30.492 187.399 31.4719 187.519 32.3715C187.663 33.2711 187.951 33.978 188.383 34.492C188.815 35.0061 189.463 35.2631 190.327 35.2631Z" fill="#08120D"/>
<path d="M207.015 39.986L201.147 0.949848H205.863L209.715 28.5643L213.315 0.949848H218.139L212.271 39.986H207.015Z" fill="#08120D"/>
<path d="M221.114 39.986V0.949848H233.354V5.9619H226.442V17.1908H231.878V22.1547H226.442V35.0703H233.426V39.986H221.114Z" fill="#08120D"/>
<path d="M236.512 39.986V0.949848H243.496C245.464 0.949848 247.12 1.27113 248.464 1.91371C249.832 2.52415 250.864 3.58439 251.56 5.09443C252.28 6.60447 252.64 8.66069 252.64 11.2631C252.64 12.8374 252.532 14.2511 252.316 15.5041C252.1 16.7571 251.728 17.8334 251.2 18.733C250.696 19.6005 249.988 20.2751 249.076 20.7571L253.144 39.986H247.816L244.288 22.1065H241.84V39.986H236.512ZM241.84 17.6245H243.496C244.528 17.6245 245.344 17.4318 245.944 17.0462C246.568 16.6286 247.012 15.986 247.276 15.1185C247.54 14.2189 247.672 13.0784 247.672 11.6968C247.672 9.737 247.396 8.27515 246.844 7.31129C246.316 6.31531 245.296 5.81732 243.784 5.81732H241.84V17.6245Z" fill="#08120D"/>
<path d="M261.015 39.986L255.147 0.949848H259.863L263.715 28.5643L267.315 0.949848H272.139L266.271 39.986H261.015Z" fill="#08120D"/>
<path d="M275.258 39.986V0.949848H280.514V39.986H275.258Z" fill="#08120D"/>
<path d="M285.028 39.986V0.949848H297.268V5.9619H290.356V17.1908H295.792V22.1547H290.356V35.0703H297.34V39.986H285.028Z" fill="#08120D"/>
<path d="M303.486 39.986L299.346 0.949848H303.81L306.222 26.2511L309.246 1.04624H312.882L315.978 26.2511L318.354 0.949848H322.746L318.678 39.986H314.358L311.118 13.8173L307.914 39.986H303.486Z" fill="#08120D"/>
</svg>
