<svg width="201" height="40" viewBox="0 0 201 40" fill="none" xmlns="http://www.w3.org/2000/svg">
<path d="M0 39.4699L0.504 0.433735H6.012L10.152 27.4699L14.472 0.433735H19.8L20.34 39.4699H16.38L15.948 12.3373L11.808 39.4699H8.604L4.392 12.241L3.996 39.4699H0Z" fill="#08120D"/>
<path d="M24.6462 39.4699V0.433735H36.8862V5.44578H29.9742V16.6747H35.4102V21.6386H29.9742V34.5542H36.9582V39.4699H24.6462Z" fill="#08120D"/>
<path d="M47.3527 40C45.4327 40 43.9087 39.4538 42.7807 38.3614C41.6527 37.2691 40.8367 35.7269 40.3327 33.7349C39.8527 31.7108 39.6127 29.3333 39.6127 26.6024V13.494C39.6127 10.6988 39.8527 8.28916 40.3327 6.26506C40.8127 4.24097 41.6527 2.6988 42.8527 1.63856C44.0767 0.546185 45.7567 0 47.8927 0C49.8847 0 51.4687 0.4498 52.6447 1.3494C53.8207 2.249 54.6607 3.5502 55.1647 5.25301C55.6927 6.92369 55.9567 8.96386 55.9567 11.3735V13.3976H50.8807V11.1807C50.8807 9.92771 50.8087 8.8514 50.6647 7.95181C50.5447 7.05221 50.2807 6.37751 49.8727 5.92771C49.4887 5.44578 48.8527 5.20482 47.9647 5.20482C47.0287 5.20482 46.3447 5.51004 45.9127 6.12048C45.5047 6.73092 45.2407 7.53414 45.1207 8.53012C45.0247 9.52611 44.9767 10.6185 44.9767 11.8072V28.1446C44.9767 29.494 45.0607 30.6667 45.2287 31.6626C45.3967 32.6586 45.7087 33.4297 46.1647 33.9759C46.6207 34.49 47.2687 34.747 48.1087 34.747C48.9727 34.747 49.6327 34.4578 50.0887 33.8795C50.5447 33.3012 50.8567 32.498 51.0247 31.4699C51.2167 30.4418 51.3127 29.2209 51.3127 27.8072V24.1446H48.1807V19.6627H56.1007V39.4699H52.6807L52.2847 35.6145C51.9007 36.8996 51.3127 37.9598 50.5207 38.7952C49.7527 39.5984 48.6967 40 47.3527 40Z" fill="#08120D"/>
<path d="M62.8239 39.4699V5.68675H58.1799V0.433735H72.7239V5.68675H68.1519V39.4699H62.8239Z" fill="#08120D"/>
<path d="M91.4746 40C89.7226 40 88.2586 39.5502 87.0826 38.6506C85.9066 37.7189 85.0186 36.3695 84.4186 34.6024C83.8186 32.8353 83.4826 30.6667 83.4106 28.0964L87.9826 26.8916C88.0306 28.4016 88.1626 29.7349 88.3786 30.8916C88.6186 32.0482 88.9666 32.9478 89.4226 33.5904C89.9026 34.2008 90.5266 34.506 91.2946 34.506C92.1586 34.506 92.7706 34.1687 93.1306 33.494C93.4906 32.7871 93.6706 31.9036 93.6706 30.8434C93.6706 29.1406 93.3826 27.743 92.8066 26.6506C92.2306 25.5582 91.4626 24.4659 90.5026 23.3735L86.8306 19.0361C85.7986 17.8474 84.9706 16.5301 84.3466 15.0843C83.7466 13.6064 83.4466 11.7912 83.4466 9.63856C83.4466 6.55422 84.1186 4.17671 85.4626 2.50603C86.8066 0.835342 88.6426 0 90.9706 0C92.3386 0 93.4786 0.289157 94.3906 0.86747C95.3026 1.41366 96.0226 2.18474 96.5506 3.18072C97.1026 4.17671 97.5106 5.31727 97.7746 6.60241C98.0386 7.85542 98.2066 9.18876 98.2786 10.6024L93.7426 11.6627C93.6946 10.4418 93.5866 9.3494 93.4186 8.38554C93.2746 7.42169 92.9986 6.66667 92.5906 6.12048C92.2066 5.5743 91.6306 5.3012 90.8626 5.3012C90.0706 5.3012 89.4586 5.65462 89.0266 6.36145C88.6186 7.03615 88.4146 7.88755 88.4146 8.91566C88.4146 10.2329 88.6186 11.3253 89.0266 12.1928C89.4346 13.0281 90.0226 13.8956 90.7906 14.7952L94.4266 19.0843C95.6266 20.4337 96.6466 22.0241 97.4866 23.8554C98.3506 25.6546 98.7826 27.8394 98.7826 30.4096C98.7826 32.2731 98.4706 33.9277 97.8466 35.3735C97.2466 36.8193 96.3946 37.9598 95.2906 38.7952C94.2106 39.5984 92.9386 40 91.4746 40Z" fill="#08120D"/>
<path d="M104.836 39.4699V5.68675H100.192V0.433735H114.736V5.68675H110.164V39.4699H104.836Z" fill="#08120D"/>
<path d="M115.209 39.4699L121.041 0.433735H126.729L132.561 39.4699H127.629L126.477 30.4578H121.401L120.213 39.4699H115.209ZM121.941 25.9277H125.901L123.921 9.54217L121.941 25.9277Z" fill="#08120D"/>
<path d="M135.494 39.4699V0.433735H140.822V17.5904L146.582 0.433735H151.658L146.078 17.8795L152.234 39.4699H146.942L142.046 21.6867L140.822 24.6747V39.4699H135.494Z" fill="#08120D"/>
<path d="M154.798 39.4699V0.433735H160.054V39.4699H154.798Z" fill="#08120D"/>
<path d="M164.568 39.4699V0.433735H168.276L175.368 22.6988V0.433735H179.76V39.4699H176.232L169.104 16.1446V39.4699H164.568Z" fill="#08120D"/>
<path d="M191.493 40C189.573 40 188.049 39.4538 186.921 38.3614C185.793 37.2691 184.977 35.7269 184.473 33.7349C183.993 31.7108 183.753 29.3333 183.753 26.6024V13.494C183.753 10.6988 183.993 8.28916 184.473 6.26506C184.953 4.24097 185.793 2.6988 186.993 1.63856C188.217 0.546185 189.897 0 192.033 0C194.025 0 195.609 0.4498 196.785 1.3494C197.961 2.249 198.801 3.5502 199.305 5.25301C199.833 6.92369 200.097 8.96386 200.097 11.3735V13.3976H195.021V11.1807C195.021 9.92771 194.949 8.8514 194.805 7.95181C194.685 7.05221 194.421 6.37751 194.013 5.92771C193.629 5.44578 192.993 5.20482 192.105 5.20482C191.169 5.20482 190.485 5.51004 190.053 6.12048C189.645 6.73092 189.381 7.53414 189.261 8.53012C189.165 9.52611 189.117 10.6185 189.117 11.8072V28.1446C189.117 29.494 189.201 30.6667 189.369 31.6626C189.537 32.6586 189.849 33.4297 190.305 33.9759C190.761 34.49 191.409 34.747 192.249 34.747C193.113 34.747 193.773 34.4578 194.229 33.8795C194.685 33.3012 194.997 32.498 195.165 31.4699C195.357 30.4418 195.453 29.2209 195.453 27.8072V24.1446H192.321V19.6627H200.241V39.4699H196.821L196.425 35.6145C196.041 36.8996 195.453 37.9598 194.661 38.7952C193.893 39.5984 192.837 40 191.493 40Z" fill="#08120D"/>
</svg>
