<svg width="125" height="40" viewBox="0 0 125 40" fill="none" xmlns="http://www.w3.org/2000/svg">
<path d="M0 39.4699L0.504 0.433735H6.012L10.152 27.4699L14.472 0.433735H19.8L20.34 39.4699H16.38L15.948 12.3373L11.808 39.4699H8.604L4.392 12.241L3.996 39.4699H0Z" fill="#08120D"/>
<path d="M28.5736 39.4699V24.5783L22.6696 0.433735H27.6376L31.2376 15.9036L34.6216 0.433735H39.4816L33.6496 24.5783V39.4699H28.5736Z" fill="#08120D"/>
<path d="M58.1465 40C56.3945 40 54.9305 39.5502 53.7545 38.6506C52.5785 37.7189 51.6905 36.3695 51.0905 34.6024C50.4905 32.8353 50.1545 30.6667 50.0825 28.0964L54.6545 26.8916C54.7025 28.4016 54.8345 29.7349 55.0505 30.8916C55.2905 32.0482 55.6385 32.9478 56.0945 33.5904C56.5745 34.2008 57.1985 34.506 57.9665 34.506C58.8305 34.506 59.4425 34.1687 59.8025 33.494C60.1625 32.7871 60.3425 31.9036 60.3425 30.8434C60.3425 29.1406 60.0545 27.743 59.4785 26.6506C58.9025 25.5582 58.1345 24.4659 57.1745 23.3735L53.5025 19.0361C52.4705 17.8474 51.6425 16.5301 51.0185 15.0843C50.4185 13.6064 50.1185 11.7912 50.1185 9.63856C50.1185 6.55422 50.7905 4.17671 52.1345 2.50603C53.4785 0.835342 55.3145 0 57.6425 0C59.0105 0 60.1505 0.289157 61.0625 0.86747C61.9745 1.41366 62.6945 2.18474 63.2225 3.18072C63.7745 4.17671 64.1825 5.31727 64.4465 6.60241C64.7105 7.85542 64.8785 9.18876 64.9505 10.6024L60.4145 11.6627C60.3665 10.4418 60.2585 9.3494 60.0905 8.38554C59.9465 7.42169 59.6705 6.66667 59.2625 6.12048C58.8785 5.5743 58.3025 5.3012 57.5345 5.3012C56.7425 5.3012 56.1305 5.65462 55.6985 6.36145C55.2905 7.03615 55.0865 7.88755 55.0865 8.91566C55.0865 10.2329 55.2905 11.3253 55.6985 12.1928C56.1065 13.0281 56.6945 13.8956 57.4625 14.7952L61.0985 19.0843C62.2985 20.4337 63.3185 22.0241 64.1585 23.8554C65.0225 25.6546 65.4545 27.8394 65.4545 30.4096C65.4545 32.2731 65.1425 33.9277 64.5185 35.3735C63.9185 36.8193 63.0665 37.9598 61.9625 38.7952C60.8825 39.5984 59.6105 40 58.1465 40Z" fill="#08120D"/>
<path d="M68.7355 39.4699V0.433735H73.9915V39.4699H68.7355Z" fill="#08120D"/>
<path d="M81.4216 39.4699V5.68675H76.7776V0.433735H91.3216V5.68675H86.7496V39.4699H81.4216Z" fill="#08120D"/>
<path d="M93.9743 39.4699V0.433735H106.214V5.44578H99.3023V16.6747H104.738V21.6386H99.3023V34.5542H106.286V39.4699H93.9743Z" fill="#08120D"/>
<path d="M116.717 40C114.965 40 113.501 39.5502 112.325 38.6506C111.149 37.7189 110.261 36.3695 109.661 34.6024C109.061 32.8353 108.725 30.6667 108.653 28.0964L113.225 26.8916C113.273 28.4016 113.405 29.7349 113.621 30.8916C113.861 32.0482 114.209 32.9478 114.665 33.5904C115.145 34.2008 115.769 34.506 116.537 34.506C117.401 34.506 118.013 34.1687 118.373 33.494C118.733 32.7871 118.913 31.9036 118.913 30.8434C118.913 29.1406 118.625 27.743 118.049 26.6506C117.473 25.5582 116.705 24.4659 115.745 23.3735L112.073 19.0361C111.041 17.8474 110.213 16.5301 109.589 15.0843C108.989 13.6064 108.689 11.7912 108.689 9.63856C108.689 6.55422 109.361 4.17671 110.705 2.50603C112.049 0.835342 113.885 0 116.213 0C117.581 0 118.721 0.289157 119.633 0.86747C120.545 1.41366 121.265 2.18474 121.793 3.18072C122.345 4.17671 122.753 5.31727 123.017 6.60241C123.281 7.85542 123.449 9.18876 123.521 10.6024L118.985 11.6627C118.937 10.4418 118.829 9.3494 118.661 8.38554C118.517 7.42169 118.241 6.66667 117.833 6.12048C117.449 5.5743 116.873 5.3012 116.105 5.3012C115.313 5.3012 114.701 5.65462 114.269 6.36145C113.861 7.03615 113.657 7.88755 113.657 8.91566C113.657 10.2329 113.861 11.3253 114.269 12.1928C114.677 13.0281 115.265 13.8956 116.033 14.7952L119.669 19.0843C120.869 20.4337 121.889 22.0241 122.729 23.8554C123.593 25.6546 124.025 27.8394 124.025 30.4096C124.025 32.2731 123.713 33.9277 123.089 35.3735C122.489 36.8193 121.637 37.9598 120.533 38.7952C119.453 39.5984 118.181 40 116.717 40Z" fill="#08120D"/>
</svg>
