<svg width="309" height="41" viewBox="0 0 309 41" fill="none" xmlns="http://www.w3.org/2000/svg">
<path d="M0.196289 39.986V0.949848H8.76429C10.5163 0.949848 11.9323 1.38358 13.0123 2.25105C14.1163 3.11852 14.9203 4.3876 15.4243 6.05828C15.9523 7.69684 16.2163 9.6888 16.2163 12.0342C16.2163 14.5723 15.8923 16.6286 15.2443 18.2029C14.5963 19.745 13.6843 20.8695 12.5083 21.5764C11.3563 22.2832 9.98829 22.6366 8.40429 22.6366H5.52429V39.986H0.196289ZM5.52429 17.6245H7.54029C8.50029 17.6245 9.24429 17.4478 9.77229 17.0944C10.3243 16.7089 10.6963 16.1145 10.8883 15.3113C11.1043 14.476 11.2123 13.3675 11.2123 11.986C11.2123 10.5723 11.1283 9.43178 10.9603 8.56431C10.8163 7.66471 10.4803 7.00607 9.95229 6.5884C9.44829 6.17073 8.64429 5.9619 7.54029 5.9619H5.52429V17.6245Z" fill="#08120D"/>
<path d="M27.1727 40.5161C25.0127 40.5161 23.3327 39.986 22.1327 38.9257C20.9327 37.8655 20.1047 36.3555 19.6487 34.3956C19.1927 32.4358 18.9647 30.0904 18.9647 27.3595V0.949848H24.1487V28.1788C24.1487 29.3996 24.2087 30.5563 24.3287 31.6486C24.4487 32.7089 24.7247 33.5764 25.1567 34.2511C25.6127 34.8936 26.2847 35.2149 27.1727 35.2149C28.1087 35.2149 28.7807 34.8936 29.1887 34.2511C29.6207 33.5764 29.8967 32.7089 30.0167 31.6486C30.1607 30.5563 30.2327 29.3996 30.2327 28.1788V0.949848H35.3807V27.3595C35.3807 30.0904 35.1527 32.4358 34.6967 34.3956C34.2407 36.3555 33.4127 37.8655 32.2127 38.9257C31.0367 39.986 29.3567 40.5161 27.1727 40.5161Z" fill="#08120D"/>
<path d="M39.5713 39.986V0.949848H46.7353C48.0313 0.949848 49.1953 1.11049 50.2273 1.43178C51.2833 1.75306 52.1833 2.29925 52.9273 3.07033C53.6953 3.80929 54.2833 4.82134 54.6913 6.10648C55.0993 7.39162 55.3033 9.0141 55.3033 10.9739C55.3033 12.5482 55.1353 13.8976 54.7993 15.0221C54.4873 16.1466 54.0193 17.0462 53.3953 17.7209C52.7713 18.3635 51.9913 18.7972 51.0553 19.0221C52.2073 19.2792 53.1553 19.8253 53.8993 20.6607C54.6673 21.4639 55.2313 22.5241 55.5913 23.8414C55.9753 25.1587 56.1673 26.749 56.1673 28.6125C56.1673 30.476 55.9873 32.1306 55.6273 33.5764C55.2913 34.99 54.7753 36.1788 54.0793 37.1426C53.4073 38.0743 52.5553 38.7812 51.5233 39.2631C50.5153 39.745 49.3273 39.986 47.9593 39.986H39.5713ZM44.8993 34.9739H46.9153C48.5233 34.9739 49.6153 34.4599 50.1913 33.4318C50.7673 32.3715 51.0553 30.749 51.0553 28.5643C51.0553 26.99 50.9113 25.7209 50.6233 24.7571C50.3593 23.7611 49.9033 23.0221 49.2553 22.5402C48.6313 22.0583 47.7913 21.8173 46.7353 21.8173H44.8993V34.9739ZM44.8993 16.9017H46.6993C47.7553 16.9017 48.5713 16.6928 49.1473 16.2752C49.7233 15.8575 50.1193 15.2149 50.3353 14.3474C50.5753 13.48 50.6953 12.3876 50.6953 11.0703C50.6953 9.68881 50.5153 8.62856 50.1553 7.88961C49.8193 7.11852 49.3033 6.60447 48.6073 6.34744C47.9113 6.05828 47.0233 5.9137 45.9433 5.9137H44.8993V16.9017Z" fill="#08120D"/>
<path d="M59.6104 39.986V0.949848H64.9384V35.0703H71.9944V39.986H59.6104Z" fill="#08120D"/>
<path d="M74.9067 39.986V0.949848H80.1627V39.986H74.9067Z" fill="#08120D"/>
<path d="M92.0208 40.5161C90.2688 40.5161 88.8048 40.0663 87.6288 39.1667C86.4528 38.235 85.5648 36.8856 84.9648 35.1185C84.3648 33.3515 84.0288 31.1828 83.9568 28.6125L88.5288 27.4077C88.5768 28.9177 88.7088 30.2511 88.9248 31.4077C89.1648 32.5643 89.5128 33.4639 89.9688 34.1065C90.4488 34.7169 91.0728 35.0221 91.8408 35.0221C92.7048 35.0221 93.3168 34.6848 93.6768 34.0101C94.0368 33.3033 94.2168 32.4197 94.2168 31.3595C94.2168 29.6567 93.9288 28.2591 93.3528 27.1667C92.7768 26.0743 92.0088 24.982 91.0488 23.8896L87.3768 19.5523C86.3448 18.3635 85.5168 17.0462 84.8928 15.6004C84.2928 14.1225 83.9928 12.3073 83.9928 10.1547C83.9928 7.07033 84.6648 4.69282 86.0088 3.02214C87.3528 1.35146 89.1888 0.516113 91.5168 0.516113C92.8848 0.516113 94.0248 0.80527 94.9368 1.38358C95.8488 1.92977 96.5688 2.70085 97.0968 3.69684C97.6488 4.69282 98.0568 5.83338 98.3208 7.11852C98.5848 8.37154 98.7528 9.70487 98.8248 11.1185L94.2888 12.1788C94.2408 10.9579 94.1328 9.86551 93.9648 8.90166C93.8208 7.9378 93.5448 7.18278 93.1368 6.6366C92.7528 6.09041 92.1768 5.81732 91.4088 5.81732C90.6168 5.81732 90.0048 6.17073 89.5728 6.87756C89.1648 7.55226 88.9608 8.40367 88.9608 9.43178C88.9608 10.749 89.1648 11.8414 89.5728 12.7089C89.9808 13.5442 90.5688 14.4117 91.3368 15.3113L94.9728 19.6005C96.1728 20.9498 97.1928 22.5402 98.0328 24.3715C98.8968 26.1707 99.3288 28.3555 99.3288 30.9257C99.3288 32.7892 99.0168 34.4438 98.3928 35.8896C97.7928 37.3354 96.9408 38.4759 95.8368 39.3113C94.7568 40.1145 93.4848 40.5161 92.0208 40.5161Z" fill="#08120D"/>
<path d="M102.538 39.986V0.949848H107.83V17.2872H113.77V0.949848H119.098V39.986H113.77V22.3474H107.83V39.986H102.538Z" fill="#08120D"/>
<path d="M123.56 39.986V0.949848H135.8V5.9619H128.888V17.1908H134.324V22.1547H128.888V35.0703H135.872V39.986H123.56Z" fill="#08120D"/>
<path d="M138.958 39.986V0.949848H145.942C147.91 0.949848 149.566 1.27113 150.91 1.91371C152.278 2.52415 153.31 3.58439 154.006 5.09443C154.726 6.60447 155.086 8.66069 155.086 11.2631C155.086 12.8374 154.978 14.2511 154.762 15.5041C154.546 16.7571 154.174 17.8334 153.646 18.733C153.142 19.6005 152.434 20.2751 151.522 20.7571L155.59 39.986H150.262L146.734 22.1065H144.286V39.986H138.958ZM144.286 17.6245H145.942C146.974 17.6245 147.79 17.4318 148.39 17.0462C149.014 16.6286 149.458 15.986 149.722 15.1185C149.986 14.2189 150.118 13.0784 150.118 11.6968C150.118 9.737 149.842 8.27515 149.29 7.31129C148.762 6.31531 147.742 5.81732 146.23 5.81732H144.286V17.6245Z" fill="#08120D"/>
<path d="M175.812 40.5161C173.748 40.5161 172.104 40.0021 170.88 38.9739C169.656 37.9458 168.78 36.4679 168.252 34.5402C167.724 32.6125 167.46 30.3314 167.46 27.6968V13.0944C167.46 10.4599 167.724 8.21089 168.252 6.34744C168.78 4.45186 169.656 3.00607 170.88 2.01009C172.104 1.01411 173.748 0.516113 175.812 0.516113C177.924 0.516113 179.58 1.01411 180.78 2.01009C182.004 3.00607 182.88 4.45186 183.408 6.34744C183.96 8.21089 184.236 10.4599 184.236 13.0944V27.745C184.236 30.3474 183.96 32.6125 183.408 34.5402C182.88 36.4358 182.004 37.9137 180.78 38.9739C179.58 40.0021 177.924 40.5161 175.812 40.5161ZM175.812 35.2631C176.7 35.2631 177.348 35.0061 177.756 34.492C178.188 33.978 178.476 33.2711 178.62 32.3715C178.764 31.4719 178.836 30.492 178.836 29.4318V11.4559C178.836 10.3635 178.764 9.38358 178.62 8.51611C178.476 7.64864 178.188 6.97395 177.756 6.49202C177.348 5.97796 176.7 5.72093 175.812 5.72093C174.972 5.72093 174.336 5.97796 173.904 6.49202C173.472 6.97395 173.184 7.64864 173.04 8.51611C172.896 9.38358 172.824 10.3635 172.824 11.4559V29.4318C172.824 30.492 172.884 31.4719 173.004 32.3715C173.148 33.2711 173.436 33.978 173.868 34.492C174.3 35.0061 174.948 35.2631 175.812 35.2631Z" fill="#08120D"/>
<path d="M192.5 39.986L186.632 0.949848H191.348L195.2 28.5643L198.8 0.949848H203.624L197.756 39.986H192.5Z" fill="#08120D"/>
<path d="M206.599 39.986V0.949848H218.839V5.9619H211.927V17.1908H217.363V22.1547H211.927V35.0703H218.911V39.986H206.599Z" fill="#08120D"/>
<path d="M221.997 39.986V0.949848H228.981C230.949 0.949848 232.605 1.27113 233.949 1.91371C235.317 2.52415 236.349 3.58439 237.045 5.09443C237.765 6.60447 238.125 8.66069 238.125 11.2631C238.125 12.8374 238.017 14.2511 237.801 15.5041C237.585 16.7571 237.213 17.8334 236.685 18.733C236.181 19.6005 235.473 20.2751 234.561 20.7571L238.629 39.986H233.301L229.773 22.1065H227.325V39.986H221.997ZM227.325 17.6245H228.981C230.013 17.6245 230.829 17.4318 231.429 17.0462C232.053 16.6286 232.497 15.986 232.761 15.1185C233.025 14.2189 233.157 13.0784 233.157 11.6968C233.157 9.737 232.881 8.27515 232.329 7.31129C231.801 6.31531 230.781 5.81732 229.269 5.81732H227.325V17.6245Z" fill="#08120D"/>
<path d="M246.5 39.986L240.632 0.949848H245.348L249.2 28.5643L252.8 0.949848H257.624L251.756 39.986H246.5Z" fill="#08120D"/>
<path d="M260.743 39.986V0.949848H265.999V39.986H260.743Z" fill="#08120D"/>
<path d="M270.513 39.986V0.949848H282.753V5.9619H275.841V17.1908H281.277V22.1547H275.841V35.0703H282.825V39.986H270.513Z" fill="#08120D"/>
<path d="M288.971 39.986L284.831 0.949848H289.295L291.707 26.2511L294.731 1.04624H298.367L301.463 26.2511L303.839 0.949848H308.231L304.163 39.986H299.843L296.603 13.8173L293.399 39.986H288.971Z" fill="#08120D"/>
</svg>
