<svg width="199" height="40" viewBox="0 0 199 40" fill="none" xmlns="http://www.w3.org/2000/svg">
<path d="M5.868 39.4699L0 0.433735H4.716L8.568 28.0482L12.168 0.433735H16.992L11.124 39.4699H5.868Z" fill="#08120D"/>
<path d="M27.5701 40C25.5061 40 23.8621 39.4859 22.6381 38.4578C21.4141 37.4297 20.5381 35.9518 20.0101 34.0241C19.4821 32.0964 19.2181 29.8153 19.2181 27.1807V12.5783C19.2181 9.94378 19.4821 7.69478 20.0101 5.83133C20.5381 3.93574 21.4141 2.48996 22.6381 1.49398C23.8621 0.497992 25.5061 0 27.5701 0C29.6821 0 31.3381 0.497992 32.5381 1.49398C33.7621 2.48996 34.6381 3.93574 35.1661 5.83133C35.7181 7.69478 35.9941 9.94378 35.9941 12.5783V27.2289C35.9941 29.8313 35.7181 32.0964 35.1661 34.0241C34.6381 35.9197 33.7621 37.3976 32.5381 38.4578C31.3381 39.4859 29.6821 40 27.5701 40ZM27.5701 34.747C28.4581 34.747 29.1061 34.49 29.5141 33.9759C29.9461 33.4618 30.2341 32.755 30.3781 31.8554C30.5221 30.9558 30.5941 29.9759 30.5941 28.9157V10.9398C30.5941 9.84739 30.5221 8.86747 30.3781 8C30.2341 7.13253 29.9461 6.45783 29.5141 5.9759C29.1061 5.46185 28.4581 5.20482 27.5701 5.20482C26.7301 5.20482 26.0941 5.46185 25.6621 5.9759C25.2301 6.45783 24.9421 7.13253 24.7981 8C24.6541 8.86747 24.5821 9.84739 24.5821 10.9398V28.9157C24.5821 29.9759 24.6421 30.9558 24.7621 31.8554C24.9061 32.755 25.1941 33.4618 25.6261 33.9759C26.0581 34.49 26.7061 34.747 27.5701 34.747Z" fill="#08120D"/>
<path d="M42.7106 39.4699V5.68675H38.0666V0.433735H52.6106V5.68675H48.0386V39.4699H42.7106Z" fill="#08120D"/>
<path d="M55.2634 39.4699V0.433735H67.5034V5.44578H60.5914V16.6747H66.0274V21.6386H60.5914V34.5542H67.5754V39.4699H55.2634Z" fill="#08120D"/>
<path d="M79.4157 39.4699V0.433735H91.4037V5.3494H84.7437V16.7229H90.1797V21.6867H84.7437V39.4699H79.4157Z" fill="#08120D"/>
<path d="M102.207 40C100.143 40 98.4988 39.4859 97.2748 38.4578C96.0508 37.4297 95.1748 35.9518 94.6468 34.0241C94.1188 32.0964 93.8548 29.8153 93.8548 27.1807V12.5783C93.8548 9.94378 94.1188 7.69478 94.6468 5.83133C95.1748 3.93574 96.0508 2.48996 97.2748 1.49398C98.4988 0.497992 100.143 0 102.207 0C104.319 0 105.975 0.497992 107.175 1.49398C108.399 2.48996 109.275 3.93574 109.803 5.83133C110.355 7.69478 110.631 9.94378 110.631 12.5783V27.2289C110.631 29.8313 110.355 32.0964 109.803 34.0241C109.275 35.9197 108.399 37.3976 107.175 38.4578C105.975 39.4859 104.319 40 102.207 40ZM102.207 34.747C103.095 34.747 103.743 34.49 104.151 33.9759C104.583 33.4618 104.871 32.755 105.015 31.8554C105.159 30.9558 105.231 29.9759 105.231 28.9157V10.9398C105.231 9.84739 105.159 8.86747 105.015 8C104.871 7.13253 104.583 6.45783 104.151 5.9759C103.743 5.46185 103.095 5.20482 102.207 5.20482C101.367 5.20482 100.731 5.46185 100.299 5.9759C99.8668 6.45783 99.5788 7.13253 99.4348 8C99.2908 8.86747 99.2188 9.84739 99.2188 10.9398V28.9157C99.2188 29.9759 99.2788 30.9558 99.3988 31.8554C99.5428 32.755 99.8308 33.4618 100.263 33.9759C100.695 34.49 101.343 34.747 102.207 34.747Z" fill="#08120D"/>
<path d="M114.572 39.4699V0.433735H121.556C123.524 0.433735 125.18 0.755021 126.524 1.39759C127.892 2.00803 128.924 3.06827 129.62 4.57831C130.34 6.08835 130.7 8.14458 130.7 10.747C130.7 12.3213 130.592 13.7349 130.376 14.988C130.16 16.241 129.788 17.3173 129.26 18.2169C128.756 19.0843 128.048 19.759 127.136 20.241L131.204 39.4699H125.876L122.348 21.5904H119.9V39.4699H114.572ZM119.9 17.1084H121.556C122.588 17.1084 123.404 16.9157 124.004 16.5301C124.628 16.1124 125.072 15.4699 125.336 14.6024C125.6 13.7028 125.732 12.5622 125.732 11.1807C125.732 9.22089 125.456 7.75904 124.904 6.79518C124.376 5.7992 123.356 5.3012 121.844 5.3012H119.9V17.1084Z" fill="#08120D"/>
<path d="M150.85 40C149.098 40 147.634 39.5502 146.458 38.6506C145.282 37.7189 144.394 36.3695 143.794 34.6024C143.194 32.8353 142.858 30.6667 142.786 28.0964L147.358 26.8916C147.406 28.4016 147.538 29.7349 147.754 30.8916C147.994 32.0482 148.342 32.9478 148.798 33.5904C149.278 34.2008 149.902 34.506 150.67 34.506C151.534 34.506 152.146 34.1687 152.506 33.494C152.866 32.7871 153.046 31.9036 153.046 30.8434C153.046 29.1406 152.758 27.743 152.182 26.6506C151.606 25.5582 150.838 24.4659 149.878 23.3735L146.206 19.0361C145.174 17.8474 144.346 16.5301 143.722 15.0843C143.122 13.6064 142.822 11.7912 142.822 9.63856C142.822 6.55422 143.494 4.17671 144.838 2.50603C146.182 0.835342 148.018 0 150.346 0C151.714 0 152.854 0.289157 153.766 0.86747C154.678 1.41366 155.398 2.18474 155.926 3.18072C156.478 4.17671 156.886 5.31727 157.15 6.60241C157.414 7.85542 157.582 9.18876 157.654 10.6024L153.118 11.6627C153.07 10.4418 152.962 9.3494 152.794 8.38554C152.65 7.42169 152.374 6.66667 151.966 6.12048C151.582 5.5743 151.006 5.3012 150.238 5.3012C149.446 5.3012 148.834 5.65462 148.402 6.36145C147.994 7.03615 147.79 7.88755 147.79 8.91566C147.79 10.2329 147.994 11.3253 148.402 12.1928C148.81 13.0281 149.398 13.8956 150.166 14.7952L153.802 19.0843C155.002 20.4337 156.022 22.0241 156.862 23.8554C157.726 25.6546 158.158 27.8394 158.158 30.4096C158.158 32.2731 157.846 33.9277 157.222 35.3735C156.622 36.8193 155.77 37.9598 154.666 38.7952C153.586 39.5984 152.314 40 150.85 40Z" fill="#08120D"/>
<path d="M161.439 39.4699V0.433735H166.695V39.4699H161.439Z" fill="#08120D"/>
<path d="M174.125 39.4699V5.68675H169.481V0.433735H184.025V5.68675H179.453V39.4699H174.125Z" fill="#08120D"/>
<path d="M186.677 39.4699V0.433735H198.917V5.44578H192.005V16.6747H197.441V21.6386H192.005V34.5542H198.989V39.4699H186.677Z" fill="#08120D"/>
</svg>
