<svg width="372" height="40" viewBox="0 0 372 40" fill="none" xmlns="http://www.w3.org/2000/svg">
<path d="M5.868 39.4699L0 0.433735H4.716L8.568 28.0482L12.168 0.433735H16.992L11.124 39.4699H5.868Z" fill="#08120D"/>
<path d="M27.5701 40C25.5061 40 23.8621 39.4859 22.6381 38.4578C21.4141 37.4297 20.5381 35.9518 20.0101 34.0241C19.4821 32.0964 19.2181 29.8153 19.2181 27.1807V12.5783C19.2181 9.94378 19.4821 7.69478 20.0101 5.83133C20.5381 3.93574 21.4141 2.48996 22.6381 1.49398C23.8621 0.497992 25.5061 0 27.5701 0C29.6821 0 31.3381 0.497992 32.5381 1.49398C33.7621 2.48996 34.6381 3.93574 35.1661 5.83133C35.7181 7.69478 35.9941 9.94378 35.9941 12.5783V27.2289C35.9941 29.8313 35.7181 32.0964 35.1661 34.0241C34.6381 35.9197 33.7621 37.3976 32.5381 38.4578C31.3381 39.4859 29.6821 40 27.5701 40ZM27.5701 34.747C28.4581 34.747 29.1061 34.49 29.5141 33.9759C29.9461 33.4618 30.2341 32.755 30.3781 31.8554C30.5221 30.9558 30.5941 29.9759 30.5941 28.9157V10.9398C30.5941 9.84739 30.5221 8.86747 30.3781 8C30.2341 7.13253 29.9461 6.45783 29.5141 5.9759C29.1061 5.46185 28.4581 5.20482 27.5701 5.20482C26.7301 5.20482 26.0941 5.46185 25.6621 5.9759C25.2301 6.45783 24.9421 7.13253 24.7981 8C24.6541 8.86747 24.5821 9.84739 24.5821 10.9398V28.9157C24.5821 29.9759 24.6421 30.9558 24.7621 31.8554C24.9061 32.755 25.1941 33.4618 25.6261 33.9759C26.0581 34.49 26.7061 34.747 27.5701 34.747Z" fill="#08120D"/>
<path d="M42.7106 39.4699V5.68675H38.0666V0.433735H52.6106V5.68675H48.0386V39.4699H42.7106Z" fill="#08120D"/>
<path d="M55.4074 39.4699V0.433735H60.6634V39.4699H55.4074Z" fill="#08120D"/>
<path d="M65.1774 39.4699V0.433735H68.8854L75.9774 22.6988V0.433735H80.3694V39.4699H76.8414L69.7134 16.1446V39.4699H65.1774Z" fill="#08120D"/>
<path d="M92.1026 40C90.1826 40 88.6586 39.4538 87.5306 38.3614C86.4026 37.2691 85.5866 35.7269 85.0826 33.7349C84.6026 31.7108 84.3626 29.3333 84.3626 26.6024V13.494C84.3626 10.6988 84.6026 8.28916 85.0826 6.26506C85.5626 4.24097 86.4026 2.6988 87.6026 1.63856C88.8266 0.546185 90.5066 0 92.6426 0C94.6346 0 96.2186 0.4498 97.3946 1.3494C98.5706 2.249 99.4106 3.5502 99.9146 5.25301C100.443 6.92369 100.707 8.96386 100.707 11.3735V13.3976H95.6306V11.1807C95.6306 9.92771 95.5586 8.85141 95.4146 7.95181C95.2946 7.05221 95.0306 6.37751 94.6226 5.92771C94.2386 5.44578 93.6026 5.20482 92.7146 5.20482C91.7786 5.20482 91.0946 5.51004 90.6626 6.12048C90.2546 6.73092 89.9906 7.53414 89.8706 8.53012C89.7746 9.52611 89.7266 10.6185 89.7266 11.8072V28.1446C89.7266 29.494 89.8106 30.6667 89.9786 31.6626C90.1466 32.6586 90.4586 33.4297 90.9146 33.9759C91.3706 34.49 92.0186 34.747 92.8586 34.747C93.7226 34.747 94.3826 34.4578 94.8386 33.8795C95.2946 33.3012 95.6066 32.498 95.7746 31.4699C95.9666 30.4418 96.0626 29.2209 96.0626 27.8072V24.1446H92.9306V19.6626H100.851V39.4699H97.4306L97.0346 35.6145C96.6506 36.8996 96.0626 37.9598 95.2706 38.7952C94.5026 39.5984 93.4466 40 92.1026 40Z" fill="#08120D"/>
<path d="M113.658 39.4699V0.433735H118.986V34.5542H126.042V39.4699H113.658Z" fill="#08120D"/>
<path d="M128.954 39.4699V0.433735H134.21V39.4699H128.954Z" fill="#08120D"/>
<path d="M146.068 40C144.316 40 142.852 39.5502 141.676 38.6506C140.5 37.7189 139.612 36.3695 139.012 34.6024C138.412 32.8353 138.076 30.6667 138.004 28.0964L142.576 26.8916C142.624 28.4016 142.756 29.7349 142.972 30.8916C143.212 32.0482 143.56 32.9478 144.016 33.5904C144.496 34.2008 145.12 34.506 145.888 34.506C146.752 34.506 147.364 34.1687 147.724 33.494C148.084 32.7871 148.264 31.9036 148.264 30.8434C148.264 29.1406 147.976 27.743 147.4 26.6506C146.824 25.5582 146.056 24.4659 145.096 23.3735L141.424 19.0361C140.392 17.8474 139.564 16.5301 138.94 15.0843C138.34 13.6064 138.04 11.7912 138.04 9.63856C138.04 6.55422 138.712 4.17671 140.056 2.50603C141.4 0.835342 143.236 0 145.564 0C146.932 0 148.072 0.289157 148.984 0.86747C149.896 1.41366 150.616 2.18474 151.144 3.18072C151.696 4.17671 152.104 5.31727 152.368 6.60241C152.632 7.85542 152.8 9.18876 152.872 10.6024L148.336 11.6627C148.288 10.4418 148.18 9.3494 148.012 8.38554C147.868 7.42169 147.592 6.66667 147.184 6.12048C146.8 5.5743 146.224 5.3012 145.456 5.3012C144.664 5.3012 144.052 5.65462 143.62 6.36145C143.212 7.03615 143.008 7.88755 143.008 8.91566C143.008 10.2329 143.212 11.3253 143.62 12.1928C144.028 13.0281 144.616 13.8956 145.384 14.7952L149.02 19.0843C150.22 20.4337 151.24 22.0241 152.08 23.8554C152.944 25.6546 153.376 27.8394 153.376 30.4096C153.376 32.2731 153.064 33.9277 152.44 35.3735C151.84 36.8193 150.988 37.9598 149.884 38.7952C148.804 39.5984 147.532 40 146.068 40Z" fill="#08120D"/>
<path d="M159.429 39.4699V5.68675H154.785V0.433735H169.329V5.68675H164.757V39.4699H159.429Z" fill="#08120D"/>
<path d="M188.656 40C186.592 40 184.948 39.4859 183.724 38.4578C182.5 37.4297 181.624 35.9518 181.096 34.0241C180.568 32.0964 180.304 29.8153 180.304 27.1807V12.5783C180.304 9.94378 180.568 7.69478 181.096 5.83133C181.624 3.93574 182.5 2.48996 183.724 1.49398C184.948 0.497992 186.592 0 188.656 0C190.768 0 192.424 0.497992 193.624 1.49398C194.848 2.48996 195.724 3.93574 196.252 5.83133C196.804 7.69478 197.08 9.94378 197.08 12.5783V27.2289C197.08 29.8313 196.804 32.0964 196.252 34.0241C195.724 35.9197 194.848 37.3976 193.624 38.4578C192.424 39.4859 190.768 40 188.656 40ZM188.656 34.747C189.544 34.747 190.192 34.49 190.6 33.9759C191.032 33.4618 191.32 32.755 191.464 31.8554C191.608 30.9558 191.68 29.9759 191.68 28.9157V10.9398C191.68 9.84739 191.608 8.86747 191.464 8C191.32 7.13253 191.032 6.45783 190.6 5.9759C190.192 5.46185 189.544 5.20482 188.656 5.20482C187.816 5.20482 187.18 5.46185 186.748 5.9759C186.316 6.45783 186.028 7.13253 185.884 8C185.74 8.86747 185.668 9.84739 185.668 10.9398V28.9157C185.668 29.9759 185.728 30.9558 185.848 31.8554C185.992 32.755 186.28 33.4618 186.712 33.9759C187.144 34.49 187.792 34.747 188.656 34.747Z" fill="#08120D"/>
<path d="M201.021 39.4699V0.433735H213.009V5.3494H206.349V16.7229H211.785V21.6867H206.349V39.4699H201.021Z" fill="#08120D"/>
<path d="M232.494 40C230.358 40 228.678 39.4377 227.454 38.3133C226.254 37.1888 225.414 35.6626 224.934 33.7349C224.454 31.7751 224.214 29.5261 224.214 26.988V13.0602C224.214 10.3936 224.454 8.08032 224.934 6.12048C225.414 4.16064 226.254 2.6506 227.454 1.59036C228.678 0.530121 230.358 0 232.494 0C234.51 0 236.082 0.465864 237.21 1.39759C238.362 2.29719 239.178 3.59839 239.658 5.3012C240.138 7.00402 240.378 8.97992 240.378 11.2289V14.506H235.266V11.1325C235.266 10.0402 235.218 9.04418 235.122 8.14458C235.05 7.24498 234.822 6.53815 234.438 6.0241C234.078 5.47791 233.442 5.20482 232.53 5.20482C231.618 5.20482 230.946 5.49398 230.514 6.07229C230.106 6.61847 229.842 7.37349 229.722 8.33735C229.602 9.26908 229.542 10.3293 229.542 11.5181V28.4819C229.542 29.8956 229.626 31.0683 229.794 32C229.962 32.8996 230.262 33.5904 230.694 34.0723C231.15 34.5221 231.762 34.747 232.53 34.747C233.418 34.747 234.042 34.4739 234.402 33.9277C234.786 33.3494 235.026 32.5944 235.122 31.6626C235.218 30.7309 235.266 29.6867 235.266 28.5301V25.012H240.378V28.1446C240.378 30.4578 240.15 32.5141 239.694 34.3133C239.238 36.0803 238.434 37.4779 237.282 38.506C236.154 39.502 234.558 40 232.494 40Z" fill="#08120D"/>
<path d="M244.088 39.4699V0.433735H251.072C253.04 0.433735 254.696 0.755021 256.04 1.39759C257.408 2.00803 258.44 3.06827 259.136 4.57831C259.856 6.08835 260.216 8.14458 260.216 10.747C260.216 12.3213 260.108 13.7349 259.892 14.988C259.676 16.241 259.304 17.3173 258.776 18.2169C258.272 19.0843 257.564 19.759 256.652 20.241L260.72 39.4699H255.392L251.864 21.5904H249.416V39.4699H244.088ZM249.416 17.1084H251.072C252.104 17.1084 252.92 16.9157 253.52 16.5301C254.144 16.1124 254.588 15.4699 254.852 14.6024C255.116 13.7028 255.248 12.5622 255.248 11.1807C255.248 9.22089 254.972 7.75904 254.42 6.79518C253.892 5.7992 252.872 5.3012 251.36 5.3012H249.416V17.1084Z" fill="#08120D"/>
<path d="M264.267 39.4699V0.433735H276.507V5.44578H269.595V16.6747H275.031V21.6386H269.595V34.5542H276.579V39.4699H264.267Z" fill="#08120D"/>
<path d="M278.19 39.4699L284.022 0.433735H289.71L295.542 39.4699H290.61L289.458 30.4578H284.382L283.194 39.4699H278.19ZM284.922 25.9277H288.882L286.902 9.54217L284.922 25.9277Z" fill="#08120D"/>
<path d="M300.019 39.4699V5.68675H295.375V0.433735H309.919V5.68675H305.347V39.4699H300.019Z" fill="#08120D"/>
<path d="M312.716 39.4699V0.433735H317.972V39.4699H312.716Z" fill="#08120D"/>
<path d="M326.95 39.4699L321.082 0.433735H325.798L329.65 28.0482L333.25 0.433735H338.074L332.206 39.4699H326.95Z" fill="#08120D"/>
<path d="M341.049 39.4699V0.433735H353.289V5.44578H346.377V16.6747H351.813V21.6386H346.377V34.5542H353.361V39.4699H341.049Z" fill="#08120D"/>
<path d="M363.791 40C362.039 40 360.575 39.5502 359.399 38.6506C358.223 37.7189 357.335 36.3695 356.735 34.6024C356.135 32.8353 355.799 30.6667 355.727 28.0964L360.299 26.8916C360.347 28.4016 360.479 29.7349 360.695 30.8916C360.935 32.0482 361.283 32.9478 361.739 33.5904C362.219 34.2008 362.843 34.506 363.611 34.506C364.475 34.506 365.087 34.1687 365.447 33.494C365.807 32.7871 365.987 31.9036 365.987 30.8434C365.987 29.1406 365.699 27.743 365.123 26.6506C364.547 25.5582 363.779 24.4659 362.819 23.3735L359.147 19.0361C358.115 17.8474 357.287 16.5301 356.663 15.0843C356.063 13.6064 355.763 11.7912 355.763 9.63856C355.763 6.55422 356.435 4.17671 357.779 2.50603C359.123 0.835342 360.959 0 363.287 0C364.655 0 365.795 0.289157 366.707 0.86747C367.619 1.41366 368.339 2.18474 368.867 3.18072C369.419 4.17671 369.827 5.31727 370.091 6.60241C370.355 7.85542 370.523 9.18876 370.595 10.6024L366.059 11.6627C366.011 10.4418 365.903 9.3494 365.735 8.38554C365.591 7.42169 365.315 6.66667 364.907 6.12048C364.523 5.5743 363.947 5.3012 363.179 5.3012C362.387 5.3012 361.775 5.65462 361.343 6.36145C360.935 7.03615 360.731 7.88755 360.731 8.91566C360.731 10.2329 360.935 11.3253 361.343 12.1928C361.751 13.0281 362.339 13.8956 363.107 14.7952L366.743 19.0843C367.943 20.4337 368.963 22.0241 369.803 23.8554C370.667 25.6546 371.099 27.8394 371.099 30.4096C371.099 32.2731 370.787 33.9277 370.163 35.3735C369.563 36.8193 368.711 37.9598 367.607 38.7952C366.527 39.5984 365.255 40 363.791 40Z" fill="#08120D"/>
</svg>
